<?xml version="1.0" standalone="no"?>
<!DOCTYPE svg PUBLIC "-//W3C//DTD SVG 20010904//EN"
 "http://www.w3.org/TR/2001/REC-SVG-20010904/DTD/svg10.dtd">
<svg version="1.0" xmlns="http://www.w3.org/2000/svg"
 width="1536.000000pt" height="906.000000pt" viewBox="0 0 1536.000000 906.000000"
 preserveAspectRatio="xMidYMid meet">
<metadata>
Created by potrace 1.16, written by Peter Selinger 2001-2019
</metadata>
<g transform="translate(0.000000,906.000000) scale(0.100000,-0.100000)"
fill="#000000" stroke="none">
<path d="M9825 9031 c86 -24 159 -55 334 -142 277 -140 365 -211 319 -257 -27
-27 -124 -4 -208 48 -64 40 -177 88 -140 60 20 -15 13 -13 -115 40 -55 22
-154 59 -220 82 l-120 41 -215 8 c-123 6 -266 6 -335 1 l-120 -9 90 -2 c175
-3 481 -21 535 -32 133 -27 324 -100 487 -185 147 -77 164 -88 149 -100 -20
-14 -222 -64 -261 -64 -14 0 -92 38 -173 84 -291 166 -372 202 -517 230 -213
42 -426 77 -437 74 -5 -2 104 -28 243 -58 284 -61 275 -57 648 -263 117 -65
149 -86 134 -91 -11 -4 -36 0 -55 8 -67 28 -580 177 -604 175 -5 0 122 -44
281 -98 160 -54 304 -104 320 -110 l30 -13 -25 -12 c-20 -11 -68 -11 -255 0
-126 7 -246 17 -265 22 -19 5 -71 27 -115 47 -105 50 -268 107 -413 146 -106
29 -132 32 -267 33 -134 1 -392 -20 -382 -31 3 -2 92 1 198 7 l194 12 135 -32
c262 -61 352 -90 463 -148 59 -31 107 -59 107 -63 0 -4 -44 -12 -97 -19 -54
-6 -159 -23 -233 -36 -74 -13 -153 -24 -175 -24 -37 0 -116 25 -175 55 -14 7
-41 18 -60 24 -19 7 -82 30 -140 51 -102 37 -273 89 -435 131 -52 13 -136 23
-240 29 -92 5 -185 15 -219 25 -32 9 -60 14 -63 12 -2 -3 9 -8 26 -12 17 -4
33 -11 36 -16 4 -5 16 -9 27 -9 55 0 -5 -11 -197 -35 -216 -26 -280 -39 -165
-31 36 3 160 10 275 17 l211 12 254 -87 c215 -74 290 -106 475 -199 237 -121
240 -123 193 -174 -20 -22 -20 -24 -5 -60 9 -21 19 -59 23 -85 4 -31 11 -48
20 -48 28 0 13 -18 -18 -22 -22 -4 -36 0 -44 10 -8 12 -22 14 -58 9 -45 -7
-248 -73 -356 -116 l-55 -23 24 26 c29 30 27 31 -76 11 -106 -20 -237 -20
-257 1 -9 8 -20 13 -25 9 -5 -3 -135 -14 -288 -25 -354 -26 -507 -45 -597 -76
-39 -14 -91 -29 -116 -34 -63 -12 -161 -49 -183 -68 -16 -14 -19 -14 -27 -2
-7 12 -12 12 -22 2 -6 -6 -22 -12 -34 -12 -13 0 -26 -4 -29 -10 -3 -5 -14 -10
-24 -10 -20 0 -71 -36 -71 -51 0 -13 55 -11 103 3 32 10 41 10 45 0 2 -7 12
-12 22 -12 10 0 22 -4 25 -10 3 -5 13 -10 22 -10 8 0 26 -9 40 -20 30 -23 43
-25 43 -7 0 8 12 24 26 38 15 13 33 39 41 57 18 42 96 81 125 63 24 -15 59
-14 101 4 43 18 160 36 244 39 42 1 68 7 81 19 25 23 32 21 32 -7 0 -34 19
-43 36 -17 8 11 24 26 35 31 18 10 19 9 13 -14 -7 -31 -12 -30 72 -10 87 20
111 4 38 -26 -56 -24 -72 -33 -139 -77 -58 -39 -63 -40 -67 -10 -3 20 -6 19
-44 -22 l-42 -44 -77 -3 c-69 -2 -81 -6 -99 -27 -21 -25 -93 -50 -176 -63 -25
-3 -52 -10 -61 -15 -12 -6 -23 -1 -40 17 l-24 26 -5 -33 c-5 -32 -8 -34 -55
-43 -27 -5 -84 -8 -126 -7 -88 2 -97 -4 -101 -70 l-3 -44 48 3 c28 2 55 -2 63
-9 12 -10 21 -8 46 11 28 20 32 21 40 6 12 -21 46 -21 70 0 16 16 19 15 37 -7
19 -23 20 -23 54 -7 24 11 48 15 72 11 28 -4 43 -1 65 16 35 26 40 26 40 4 0
-16 13 -18 137 -17 79 1 151 7 168 14 30 11 43 11 162 -9 41 -7 71 -7 88 -1
24 9 68 11 155 7 19 -1 47 2 63 6 21 6 27 4 27 -8 0 -12 8 -14 38 -9 28 4 49
1 73 -11 50 -26 259 -34 278 -11 18 22 31 20 31 -4 0 -22 31 -43 52 -35 7 3
23 21 36 41 23 36 24 36 80 30 31 -3 140 -9 242 -14 144 -8 198 -14 244 -30
53 -19 158 -38 246 -44 l35 -3 -33 -20 c-35 -21 -39 -48 -7 -53 49 -9 35 -22
-23 -22 -65 0 -80 12 -37 32 14 6 25 15 25 20 0 11 -52 10 -175 -3 -55 -5
-221 -14 -370 -19 -148 -5 -319 -13 -380 -19 -60 -5 -549 -15 -1085 -20 -1051
-12 -1143 -15 -1177 -37 -27 -17 -30 -49 -5 -63 19 -11 24 -10 -58 -16 -19 -1
-66 -9 -105 -18 -38 -9 -133 -23 -210 -32 -77 -8 -183 -20 -235 -27 -52 -6
-108 -11 -125 -11 -16 1 -58 2 -93 2 -72 2 -112 14 -112 35 0 8 -9 21 -21 29
-11 8 -16 18 -11 21 16 9 24 74 12 96 -17 32 -71 25 -91 -12 -9 -16 -6 -25 15
-47 15 -16 29 -44 33 -64 5 -33 2 -38 -28 -56 -18 -11 -58 -25 -89 -31 -30 -6
-73 -17 -95 -24 -22 -7 -60 -19 -85 -26 -25 -7 -51 -14 -57 -16 -20 -5 -15
-42 7 -49 40 -13 244 -12 271 1 14 7 53 13 85 13 43 -1 76 7 117 25 74 32 131
42 352 61 100 8 194 19 210 24 74 24 1044 108 1082 94 22 -9 -9 -37 -62 -58
-25 -9 -45 -21 -45 -26 0 -11 -11 -11 125 0 135 12 260 52 252 82 -3 12 0 19
8 19 24 0 45 -12 45 -25 0 -7 7 -15 15 -19 43 -16 -40 -64 -150 -86 -33 -6
-80 -17 -105 -25 -25 -7 -67 -20 -95 -28 -82 -24 -449 -154 -499 -176 -46 -20
-60 -46 -31 -57 8 -3 37 -1 64 6 35 8 55 9 68 1 16 -9 14 -12 -19 -25 -20 -9
-63 -17 -95 -18 -53 -3 -58 -1 -61 18 -3 21 -4 22 -43 6 -30 -11 -45 -13 -62
-5 -15 7 -38 8 -63 3 -126 -28 -238 -56 -299 -75 -38 -12 -99 -26 -134 -30
-73 -8 -139 -36 -200 -84 -23 -18 -48 -31 -55 -28 -8 3 -31 -3 -51 -14 -50
-27 -487 -88 -538 -75 l-28 7 21 29 c12 17 18 35 14 41 -10 17 -155 6 -334
-25 -80 -13 -217 -32 -305 -41 -88 -9 -322 -36 -520 -60 -198 -24 -439 -51
-535 -60 -96 -8 -236 -22 -310 -30 -250 -27 -344 -36 -525 -50 -99 -7 -191
-18 -205 -23 -14 -5 -56 -12 -95 -16 -38 -4 -100 -14 -137 -23 -55 -14 -80
-15 -130 -6 -65 10 -99 1 -121 -35 -7 -11 -11 -11 -20 1 -12 14 -92 30 -152
30 -16 0 -73 -5 -125 -11 -72 -8 -96 -8 -102 1 -11 15 -33 -12 -59 -70 l-18
-43 -175 0 c-96 0 -186 4 -200 10 -22 8 -25 14 -19 40 l6 31 -39 -7 c-55 -10
-84 -22 -84 -34 0 -6 -5 -8 -11 -5 -6 4 -7 19 -4 36 7 32 -8 40 -23 12 -8 -13
-20 -15 -68 -10 -69 6 -153 24 -173 36 -40 25 31 78 147 112 58 16 362 73 502
94 25 3 127 22 228 41 101 19 296 52 435 74 139 22 314 51 390 65 76 14 142
23 147 20 4 -3 26 2 49 10 22 7 69 17 103 21 73 8 94 19 76 41 -9 12 -28 13
-92 8 -83 -7 -458 -66 -544 -86 -26 -6 -99 -17 -162 -25 -63 -8 -142 -18 -175
-23 -33 -5 -96 -14 -140 -20 -98 -14 -216 -35 -310 -55 -38 -9 -146 -25 -240
-36 -269 -31 -295 -37 -365 -72 -72 -37 -115 -88 -126 -150 l-6 -38 68 -31
c90 -41 132 -52 354 -94 249 -48 440 -59 783 -48 228 7 270 10 280 24 9 12 16
13 28 6 21 -13 49 -2 49 18 0 8 -11 21 -25 27 -14 6 -25 17 -25 25 0 18 -29
17 -36 -2 -13 -33 -84 1 -84 40 0 14 3 13 25 -1 35 -23 123 -15 160 14 24 19
40 22 126 22 97 0 111 -4 88 -27 -12 -12 -4 -33 12 -33 6 0 14 13 20 28 8 25
17 29 82 40 211 37 269 43 359 40 53 -2 94 0 91 5 -2 4 16 7 40 7 39 0 46 -3
51 -25 7 -28 -2 -75 -14 -75 -5 0 -10 10 -12 22 -2 16 -12 24 -38 29 -19 4
-38 5 -43 2 -12 -7 11 -30 38 -37 30 -8 32 -22 5 -29 -11 -3 -20 -11 -20 -19
0 -11 16 -13 73 -10 39 3 79 8 88 13 10 5 20 4 27 -3 18 -18 61 7 74 43 7 21
18 32 39 36 35 7 50 23 58 66 6 27 12 32 39 35 38 4 41 -9 15 -87 -18 -57 -15
-68 15 -52 13 7 49 8 95 5 42 -4 84 -4 94 0 17 7 17 8 -1 22 -17 12 -17 14 -3
14 9 0 22 10 28 22 11 20 13 20 24 5 7 -10 34 -22 61 -28 102 -22 175 -21 344
5 91 15 219 31 285 37 66 6 158 18 205 25 47 8 132 20 189 26 94 11 104 10
113 -5 12 -23 23 -21 62 8 65 49 187 77 436 100 145 13 165 13 173 0 9 -17 38
-20 52 -6 6 5 33 11 60 13 58 5 315 74 329 88 6 6 22 10 37 10 15 0 80 13 143
30 63 16 179 41 257 56 78 14 153 30 167 35 29 11 149 15 159 5 3 -3 -11 -23
-33 -44 -21 -21 -67 -70 -100 -108 -43 -49 -86 -84 -140 -116 -44 -25 -88 -53
-99 -62 -19 -15 -19 -16 7 -6 15 5 46 19 69 30 22 12 42 20 44 18 2 -2 -21
-28 -50 -60 -38 -41 -87 -76 -179 -128 -69 -39 -126 -73 -126 -75 0 -2 52 23
116 57 82 43 113 55 106 42 -24 -43 -134 -125 -202 -149 -59 -21 -118 -65
-188 -139 -94 -101 -95 -120 -1 -32 46 43 100 89 120 102 33 23 140 66 147 59
2 -1 -6 -22 -16 -46 -11 -24 -24 -57 -28 -74 -8 -25 -26 -39 -119 -87 -60 -32
-107 -57 -104 -58 10 0 78 29 143 61 32 17 60 28 62 26 2 -2 -6 -28 -18 -58
-22 -57 -54 -99 -73 -99 -16 0 -166 -75 -190 -95 -21 -18 -19 -17 36 8 130 59
172 77 176 73 3 -3 -7 -27 -23 -54 -19 -34 -45 -60 -86 -86 -32 -21 -61 -43
-64 -48 -4 -5 11 1 32 15 22 13 50 30 63 37 l25 13 -26 -44 c-19 -32 -46 -56
-101 -89 -123 -74 -141 -95 -39 -45 110 54 125 40 32 -32 -70 -54 -78 -66 -17
-25 68 46 70 47 59 25 -12 -22 -60 -66 -144 -131 -95 -73 -107 -97 -18 -33 47
33 89 61 93 61 19 0 -19 -44 -93 -105 -44 -37 -80 -69 -80 -72 0 -3 24 14 53
38 91 77 86 76 67 18 -15 -44 -28 -59 -83 -100 -74 -56 -214 -200 -245 -253
-12 -20 -20 -36 -18 -36 1 0 41 44 88 98 81 94 106 112 212 161 12 5 -1 -70
-20 -117 -11 -26 -35 -51 -82 -85 -37 -26 -92 -70 -122 -98 l-55 -50 108 71
c132 87 137 89 137 59 0 -49 -13 -65 -78 -106 -108 -68 -124 -89 -30 -39 47
25 91 46 96 46 5 0 12 -17 15 -37 2 -21 10 -70 18 -110 12 -68 12 -73 -7 -94
-10 -11 -35 -29 -55 -40 -20 -10 -61 -41 -90 -69 l-54 -51 99 66 c54 36 104
65 111 65 13 0 25 -43 25 -86 0 -18 -11 -29 -47 -48 -27 -13 -57 -34 -68 -47
-17 -20 -13 -18 36 9 70 39 87 40 91 4 4 -22 -6 -37 -56 -86 -34 -32 -49 -51
-33 -42 26 16 27 16 27 -7 0 -13 -9 -32 -20 -42 -11 -10 -20 -23 -20 -28 0 -6
8 -3 18 6 19 17 102 50 109 43 3 -2 11 -30 19 -61 14 -51 14 -59 0 -74 -9 -10
-13 -20 -10 -24 3 -3 -3 -10 -14 -16 -28 -15 -58 -59 -87 -128 -14 -32 -19
-49 -12 -39 6 10 26 39 42 65 26 40 85 91 105 91 4 0 17 -38 30 -84 l22 -84
-76 -127 c-42 -69 -73 -124 -69 -122 5 3 40 50 78 106 39 55 72 100 75 101 6
0 50 -123 50 -141 0 -6 -29 -50 -63 -98 -93 -126 -159 -221 -154 -221 2 0 58
59 123 131 118 131 118 131 134 108 8 -13 31 -40 52 -59 l36 -35 -13 -97 c-14
-105 -28 -289 -20 -273 2 6 13 88 24 184 11 96 23 176 25 178 4 4 128 -32 147
-43 4 -2 2 -27 -3 -56 -12 -64 3 -200 32 -285 11 -32 18 -47 16 -33 -20 115
-27 199 -24 278 l3 94 49 -34 c54 -36 68 -58 39 -59 -11 0 -5 -6 17 -16 19 -8
37 -17 39 -19 2 -2 14 -52 26 -111 24 -111 32 -115 16 -8 -6 33 -12 86 -16
118 -5 51 -3 57 14 57 10 0 24 -7 31 -15 17 -21 34 -19 80 10 22 14 51 25 65
25 45 0 204 31 262 51 67 23 63 22 63 5 0 -32 -51 -125 -94 -169 -25 -26 -46
-55 -46 -65 0 -9 -9 -34 -20 -55 -11 -20 -20 -47 -20 -59 0 -13 -9 -47 -20
-76 -11 -29 -20 -64 -20 -78 0 -14 -5 -35 -12 -47 -6 -12 -14 -72 -18 -132 -4
-83 -11 -120 -26 -150 -12 -22 -19 -45 -17 -52 2 -6 -7 -40 -21 -75 -40 -103
-73 -206 -101 -323 -54 -220 -177 -515 -326 -785 -10 -19 -23 -53 -29 -75 -5
-23 -28 -65 -51 -95 -22 -30 -52 -75 -67 -100 -14 -25 -74 -109 -134 -186
-141 -185 -241 -275 -431 -390 -81 -49 -160 -99 -175 -111 -25 -20 -26 -23
-11 -38 8 -8 31 -18 50 -21 57 -10 139 40 340 207 100 83 200 162 223 176 132
80 383 465 569 873 159 347 395 948 417 1060 28 145 221 590 312 722 11 15 57
48 102 73 83 45 84 46 112 113 15 37 35 85 44 108 10 22 62 90 116 151 55 61
122 138 151 171 32 37 70 68 100 82 26 12 81 45 120 74 70 49 74 54 115 146
23 52 60 142 84 199 l42 105 66 0 c38 1 66 -3 66 -9 -2 -62 -36 -149 -103
-268 -42 -73 -84 -144 -95 -157 -31 -39 -81 -146 -200 -420 -61 -140 -137
-311 -170 -380 -95 -200 -329 -713 -337 -740 -6 -20 -5 -23 6 -12 7 6 20 12
29 12 27 0 122 138 207 301 44 85 101 188 126 229 107 176 184 329 372 742 34
75 138 272 230 439 l168 302 16 122 c9 68 18 126 21 128 3 3 46 -63 97 -146
l92 -152 -20 -31 c-41 -67 -20 -115 109 -248 112 -114 148 -124 298 -86 158
41 178 55 400 286 387 403 465 489 517 571 37 59 60 85 81 93 16 5 31 8 33 6
3 -2 -9 -51 -26 -108 -17 -56 -33 -119 -36 -138 -5 -31 36 -332 66 -478 13
-63 40 -81 130 -89 56 -5 60 -4 88 26 16 17 31 31 34 31 6 0 98 -144 137 -215
48 -88 109 -164 148 -184 34 -17 39 -29 139 -292 57 -151 121 -330 144 -399
43 -134 56 -152 120 -172 30 -8 41 -18 45 -37 12 -55 17 -64 61 -113 25 -28
58 -79 74 -112 16 -34 48 -89 71 -123 48 -69 63 -91 144 -213 31 -47 75 -106
98 -132 82 -93 136 -189 136 -241 0 -13 18 -53 40 -90 35 -57 40 -74 41 -129
1 -64 4 -61 23 25 6 27 7 27 36 12 17 -9 30 -24 30 -34 0 -10 21 -47 48 -83
89 -121 122 -185 123 -235 0 -27 2 -33 8 -19 7 17 9 17 29 -9 12 -15 24 -43
28 -64 3 -20 14 -48 25 -63 17 -25 17 -29 3 -73 -20 -58 -13 -68 11 -15 10 22
21 40 24 40 3 0 14 -12 25 -26 16 -22 18 -40 14 -117 -4 -84 -3 -89 8 -52 7
22 13 48 13 58 1 17 3 17 23 3 12 -9 30 -16 39 -16 11 0 24 -25 44 -92 26 -84
34 -98 96 -165 58 -63 69 -80 74 -120 4 -27 10 -61 15 -78 7 -29 7 -28 15 18
4 26 12 50 17 53 23 15 194 -136 268 -236 47 -63 56 -70 138 -105 117 -51 222
-86 234 -79 6 4 -9 26 -32 49 -30 30 -74 58 -146 91 -87 39 -105 51 -113 77
-9 25 -8 32 7 43 9 7 21 14 26 14 5 0 7 2 4 5 -3 3 -17 1 -31 -4 -23 -9 -33
-2 -129 94 -58 59 -116 129 -133 159 -16 30 -40 68 -53 85 l-23 30 28 16 28
16 -31 -6 c-26 -5 -35 -1 -58 25 -14 17 -26 36 -26 41 0 18 -76 92 -107 106
-31 13 -33 16 -33 65 l0 52 62 -59 62 -60 -57 67 c-59 68 -66 83 -44 91 6 3 3
6 -9 6 -12 1 -25 10 -30 21 -5 11 -51 62 -101 114 -51 51 -93 98 -93 103 0 5
17 14 38 20 l37 10 -45 2 c-53 1 -70 14 -70 52 0 19 -11 36 -36 56 -27 22 -38
40 -43 69 -5 29 -13 42 -32 51 -44 21 -53 41 -54 111 0 44 -4 67 -13 70 -18 6
-178 247 -240 362 -28 52 -74 120 -101 152 -47 52 -91 131 -91 164 0 7 -24 42
-53 76 -90 107 -171 228 -152 228 22 0 215 -49 234 -60 9 -4 68 -103 131 -219
63 -117 134 -237 158 -269 117 -157 375 -396 494 -458 32 -17 79 -15 85 2 2 6
-31 34 -74 62 -113 73 -220 189 -394 427 -142 195 -168 238 -357 590 -112 209
-274 504 -361 655 l-156 274 -6 141 -6 140 -77 231 c-42 128 -76 238 -76 245
0 18 69 63 96 64 20 1 21 -4 20 -80 -1 -119 21 -163 109 -219 60 -39 163 -55
204 -32 21 12 30 11 65 -4 23 -10 97 -31 166 -46 110 -25 145 -29 290 -29 91
0 206 3 256 8 l90 7 29 -60 c27 -58 90 -133 70 -85 -16 38 -55 158 -53 160 8
6 178 55 189 55 8 0 31 -26 51 -58 21 -31 61 -82 88 -112 l51 -55 -39 60 c-45
68 -102 168 -102 178 0 6 124 45 215 67 44 11 55 10 83 -4 18 -9 32 -22 32
-29 0 -6 -18 -80 -39 -163 -32 -125 -51 -173 -105 -278 -76 -145 -79 -164 -42
-283 13 -43 27 -103 31 -133 10 -85 22 -123 81 -255 30 -68 54 -127 54 -132 0
-6 -22 -38 -50 -72 -54 -68 -67 -100 -22 -59 40 37 60 41 73 15 6 -12 23 -34
37 -49 l25 -28 -17 -103 -18 -103 23 -55 c12 -30 28 -62 35 -73 11 -15 9 -27
-8 -70 -36 -92 -47 -126 -40 -126 4 0 20 26 36 57 25 52 29 56 41 39 20 -27
28 -108 15 -156 -12 -43 -7 -69 5 -30 4 12 12 19 18 17 18 -6 20 -72 3 -130
-19 -63 -14 -71 12 -20 l20 38 7 -37 c5 -24 2 -52 -8 -80 -28 -80 -28 -83 -1
-33 l27 50 13 -45 c11 -34 11 -57 4 -93 -6 -26 -10 -60 -10 -75 1 -25 3 -24
23 16 22 42 24 42 40 24 9 -10 17 -28 17 -39 0 -12 4 -23 10 -25 15 -5 15 -80
0 -108 -7 -14 -9 -22 -5 -18 4 4 15 -5 22 -20 21 -38 9 -145 -19 -185 l-21
-29 21 11 c12 6 28 21 36 32 14 21 15 20 25 -17 15 -55 15 -57 -24 -147 -34
-79 -44 -127 -26 -127 5 0 13 15 16 33 10 44 46 127 55 127 16 0 30 -102 30
-209 0 -96 -3 -112 -22 -137 l-22 -29 25 23 c14 12 28 22 32 22 4 0 7 -22 7
-49 0 -28 4 -52 9 -55 5 -3 -2 -35 -15 -71 -32 -87 -30 -104 3 -32 14 32 31
56 37 54 20 -7 18 -96 -4 -163 -23 -68 -23 -100 -1 -37 17 45 31 28 31 -38 0
-25 7 -67 14 -94 8 -26 13 -62 11 -79 -4 -24 -3 -26 3 -7 6 20 15 8 64 -90 31
-63 70 -127 87 -143 29 -27 33 -29 68 -18 21 6 47 18 57 25 18 13 18 15 -8 59
-14 25 -26 52 -26 61 0 9 -13 26 -29 38 -16 12 -27 28 -24 35 3 7 -16 38 -41
67 -36 42 -46 62 -46 89 0 52 18 63 80 48 73 -17 70 -8 -6 19 -51 18 -65 28
-69 47 -3 13 -7 35 -10 49 -5 23 -3 24 20 15 14 -5 39 -17 56 -26 54 -27 43
-7 -13 24 -83 47 -95 58 -111 107 -19 55 -14 79 13 65 24 -13 70 -30 70 -27 0
2 -20 18 -45 37 -37 28 -45 39 -45 67 0 41 17 43 77 7 25 -14 47 -24 49 -21 8
8 -59 56 -94 68 -18 6 -32 18 -32 26 0 9 -11 41 -24 72 -32 75 -60 206 -49
226 8 13 13 12 43 -10 19 -14 36 -25 39 -25 6 0 -81 93 -91 98 -5 2 -8 29 -8
59 l0 55 28 -17 27 -18 -26 29 c-16 17 -29 47 -33 72 -6 42 -6 43 16 37 22 -7
22 -6 5 7 -11 8 -31 52 -47 99 -15 46 -35 100 -44 121 -14 32 -14 37 0 42 18
7 63 -2 82 -17 6 -5 12 -21 13 -36 1 -23 3 -21 13 11 l11 38 25 -46 c27 -53
80 -92 134 -101 37 -6 41 -2 36 42 -3 29 -91 201 -174 339 -75 125 -216 414
-267 546 -28 71 -28 76 -12 88 16 12 23 7 63 -40 101 -118 112 -124 46 -24
-63 97 -64 100 -50 127 12 24 116 441 138 554 3 17 29 242 57 500 63 574 65
745 12 745 -10 0 -12 6 -8 19 10 32 -74 92 -148 106 -20 4 -37 9 -37 10 0 2 7
32 15 67 11 49 15 156 16 483 l2 420 -54 33 c-56 34 -71 36 -182 23 -37 -4
-66 -4 -65 -1 2 4 30 77 63 163 68 180 50 166 215 170 l94 2 68 -165 c120
-294 162 -366 308 -540 71 -85 130 -160 130 -166 0 -6 -11 -37 -24 -70 -24
-59 -62 -231 -53 -240 3 -3 8 12 12 32 10 54 76 254 84 254 16 0 41 -62 41
-103 0 -68 3 -70 223 -153 97 -36 130 -44 186 -44 112 0 237 26 285 59 60 43
149 139 181 196 42 74 52 83 145 130 80 41 126 78 163 135 10 13 17 29 17 34
0 9 -89 3 -140 -10 -17 -4 -6 7 33 36 65 47 75 62 20 27 -21 -13 -44 -27 -51
-31 -22 -13 18 57 42 74 11 8 34 27 51 42 l30 28 -30 -15 c-16 -8 -31 -11 -33
-6 -6 19 29 71 60 87 38 20 116 92 171 159 l42 50 -38 -32 c-21 -18 -40 -33
-42 -33 -2 0 -27 -9 -55 -20 l-51 -20 12 23 c7 12 54 68 105 123 102 111 126
149 42 67 -46 -44 -86 -73 -101 -73 -2 0 -2 21 0 48 3 26 0 96 -6 156 -6 60
-10 110 -8 112 1 1 38 -13 82 -32 88 -37 128 -41 179 -20 26 11 38 25 51 60
17 44 17 51 0 160 -9 63 -31 158 -49 211 -18 53 -29 98 -25 101 20 12 128 -41
351 -173 48 -29 85 -46 81 -38 -3 8 -10 15 -17 15 -17 0 -129 77 -119 82 4 3
3 3 -4 2 -6 -2 -42 17 -79 41 l-67 43 39 22 c37 20 32 20 -29 -2 -21 -8 -33
-6 -54 7 -30 20 -29 20 38 67 13 10 -2 4 -35 -12 -32 -17 -66 -30 -76 -30 -29
0 -33 30 -8 58 l23 26 -29 -22 c-40 -31 -49 -27 -29 11 26 50 21 121 -16 201
-37 82 -37 85 -9 60 13 -10 6 2 -15 28 -20 25 -41 58 -47 72 l-10 26 55 -35
c30 -19 55 -33 55 -31 0 2 -29 28 -65 57 -55 44 -125 133 -113 144 1 1 21 12
44 23 23 12 49 33 58 47 13 20 23 24 39 20 15 -4 18 -3 9 3 -11 7 -8 14 15 29
41 29 64 35 79 22 12 -9 13 -9 9 3 -4 11 5 20 32 31 21 9 33 16 27 16 -7 1
-44 -12 -83 -28 -38 -16 -73 -26 -76 -23 -3 3 -5 0 -5 -6 0 -7 -5 -12 -10 -12
-11 0 -70 -39 -80 -52 -3 -4 -25 -14 -48 -22 -40 -14 -42 -14 -57 6 -13 20
-12 27 21 87 l37 66 -60 -58 c-58 -57 -59 -57 -106 -51 -45 6 -201 -16 -254
-37 -18 -6 -28 -1 -58 32 -74 82 -246 239 -282 258 -44 22 -41 24 62 46 l70
15 -75 -4 c-41 -2 -69 -1 -62 1 7 3 17 14 23 25 10 19 9 20 -15 14 -14 -3 -26
-2 -26 3 0 5 -21 11 -47 14 -207 23 -252 30 -283 46 -25 13 -55 48 -101 118
-54 81 -82 111 -150 164 -84 65 -159 115 -159 106 0 -3 39 -37 88 -75 101 -81
139 -121 175 -178 l26 -42 -40 -27 c-38 -27 -41 -28 -109 -16 -38 6 -112 11
-164 11 -117 0 -133 11 -165 115 -35 113 -57 143 -151 207 -135 91 -195 120
-269 128 -36 4 -67 6 -69 4 -2 -1 35 -14 83 -29 66 -20 105 -40 168 -86 144
-105 148 -109 182 -181 56 -116 56 -178 0 -178 -28 0 -33 6 -94 116 -28 49
-51 86 -51 83 0 -3 20 -48 44 -100 24 -52 42 -96 40 -98 -2 -2 -38 34 -81 79
-43 46 -98 96 -122 111 -43 28 -168 75 -177 67 -2 -3 26 -17 62 -32 36 -15 81
-37 98 -49 39 -26 181 -185 173 -193 -3 -3 -50 14 -104 39 -98 45 -193 78
-222 76 -9 0 28 -16 82 -35 54 -19 122 -51 152 -70 l53 -35 -21 -38 -21 -38
-63 34 c-35 19 -63 33 -63 30 0 -2 25 -21 56 -41 62 -41 60 -32 30 -140 -8
-32 -13 -71 -10 -85 4 -14 -20 17 -51 69 -32 52 -69 109 -82 126 -12 17 -23
38 -23 46 0 9 -27 39 -60 68 -32 28 -62 59 -65 70 -5 17 -168 124 -283 186
-30 16 -68 37 -85 46 -18 10 -44 18 -59 18 -16 0 -40 13 -62 33 -35 33 -92 57
-136 57 -12 0 -34 13 -48 28 -37 39 -69 55 -98 48 -17 -5 -33 0 -51 14 -14 11
-37 20 -50 20 -14 0 -77 22 -141 49 -133 56 -166 65 -237 63 -55 -1 -61 1
-325 140 -234 123 -418 178 -590 177 l-95 -1 142 -19 c78 -10 164 -27 192 -38
28 -10 141 -70 250 -133 l200 -113 -37 -8 c-20 -5 -88 -6 -151 -3 -103 5 -117
8 -140 30 -55 51 -203 141 -366 221 -208 102 -295 133 -388 140 l-72 5 110
-29z m-1896 -456 c57 -14 221 -66 365 -116 245 -85 356 -132 356 -150 0 -12
-42 -39 -62 -39 -9 0 -64 24 -120 53 -233 119 -343 164 -598 243 -160 49 -129
54 59 9z m5486 -515 c8 -25 -1 -40 -25 -40 -28 0 -34 19 -14 41 22 24 31 24
39 -1z m415 -130 c0 -13 -43 -30 -76 -30 -34 0 -30 15 9 28 43 13 67 14 67 2z
m-5285 -110 c-3 -5 -10 -10 -16 -10 -5 0 -9 5 -9 10 0 6 7 10 16 10 8 0 12 -4
9 -10z m305 -237 c0 -9 -14 -13 -45 -13 -51 0 -54 6 -24 44 l21 27 24 -22 c13
-12 24 -28 24 -36z m-1295 -43 c-3 -5 -11 -10 -16 -10 -6 0 -7 5 -4 10 3 6 11
10 16 10 6 0 7 -4 4 -10z m55 -20 c-6 -11 -15 -20 -20 -20 -16 0 -11 18 8 29
24 14 24 14 12 -9z m-184 -35 c-3 -10 -20 -15 -46 -15 -25 0 -39 4 -35 10 3 6
17 10 29 10 13 0 30 7 37 16 15 18 25 4 15 -21z m69 16 c-3 -6 -15 -16 -26
-22 -18 -9 -19 -9 -10 9 10 19 32 33 40 26 1 -1 0 -7 -4 -13z m-355 -5 c0 -3
-4 -8 -10 -11 -5 -3 -10 -1 -10 4 0 6 5 11 10 11 6 0 10 -2 10 -4z m480 -16
c-6 -11 -13 -20 -16 -20 -2 0 0 9 6 20 6 11 13 20 16 20 2 0 0 -9 -6 -20z
m1075 -90 c86 -11 145 -27 145 -40 0 -4 -16 -15 -36 -25 -30 -14 -52 -16 -124
-10 -129 10 -205 27 -205 45 0 24 65 52 105 45 19 -3 71 -10 115 -15z m-2205
-50 c0 -12 -28 -25 -36 -17 -9 9 6 27 22 27 8 0 14 -5 14 -10z m7045 -47 c106
-20 255 -68 335 -108 141 -71 330 -334 452 -630 33 -80 33 -81 32 -240 -1
-175 -24 -320 -64 -414 -34 -77 -182 -214 -381 -351 l-73 -50 -91 0 c-112 0
-216 25 -334 82 -74 35 -100 55 -201 157 -135 136 -291 339 -352 459 -40 79
-43 91 -47 179 -1 52 2 132 9 177 19 132 85 376 120 446 64 128 164 246 243
287 68 35 188 37 352 6z m-4157 -123 c17 -11 53 -25 78 -31 46 -12 48 -24 6
-31 -22 -3 -21 -5 18 -52 22 -27 39 -54 37 -60 -2 -6 -19 -10 -37 -8 -81 7
-161 87 -138 137 7 16 7 29 -1 44 -14 26 -5 27 37 1z m333 -106 c45 -13 56
-19 52 -34 -3 -11 2 -19 16 -23 12 -3 21 -10 21 -17 0 -6 -3 -9 -7 -7 -5 2
-56 25 -115 52 -115 52 -154 85 -70 59 26 -8 72 -21 103 -30z m-3341 -15 c0
-7 -10 -9 -25 -7 -14 3 -51 -1 -83 -9 -71 -17 -358 -31 -349 -16 5 9 53 19
177 37 65 9 280 5 280 -5z m2481 -50 c65 -10 129 -39 129 -59 0 -5 -8 -10 -17
-10 -9 0 -40 -13 -70 -30 -29 -16 -60 -30 -68 -30 -8 0 -15 -4 -15 -10 0 -5
-8 -10 -18 -10 -13 0 -18 8 -17 27 0 46 -49 56 -214 43 -75 -5 -152 -13 -173
-16 -33 -6 -38 -4 -52 24 -9 17 -16 35 -16 40 0 15 52 35 110 43 69 9 334 1
421 -12z m1159 -29 c-20 -13 -40 -13 -40 0 0 6 12 10 28 10 21 0 24 -2 12 -10z
m-852 -17 c-4 -20 -30 -28 -56 -18 -16 6 -15 8 2 21 28 20 58 18 54 -3z
m-1890 -3 c-42 -12 -164 -23 -187 -15 -47 15 -4 25 102 24 73 0 103 -4 85 -9z
m-373 -160 c-3 -5 -14 -10 -23 -10 -15 0 -15 2 -2 10 20 13 33 13 25 0z m-170
-56 c-28 -22 -96 -54 -118 -54 -9 0 -40 -12 -68 -26 -50 -27 -139 -44 -139
-28 0 14 81 52 126 58 23 3 73 19 110 36 38 16 78 29 89 29 l20 0 -20 -15z
m-378 -130 c-3 -3 -12 -4 -19 -1 -8 3 -5 6 6 6 11 1 17 -2 13 -5z m-2264 -395
c19 0 27 -5 27 -18 0 -25 -44 -37 -245 -66 -93 -14 -186 -29 -205 -35 -19 -5
-59 -10 -88 -10 -29 0 -98 -8 -154 -17 -103 -17 -109 -17 -286 14 l-33 5 22
-36 c23 -39 19 -42 -30 -25 -23 8 -31 17 -31 35 0 31 -13 31 -33 0 -17 -25
-53 -40 -63 -25 -3 5 -1 9 3 9 5 0 17 14 26 30 12 20 26 30 42 30 13 0 36 5
52 11 86 33 282 41 345 15 49 -21 82 -21 74 -1 -4 12 6 15 59 15 36 0 67 5 71
11 4 7 23 9 51 5 35 -5 50 -2 73 15 24 18 38 21 102 17 59 -3 79 -1 103 14 20
13 40 17 60 13 17 -4 42 -6 58 -6z m-1134 -145 c3 -16 1 -17 -13 -5 -19 16
-21 34 -3 29 6 -3 14 -13 16 -24z m-255 10 c24 -9 19 -22 -16 -44 -43 -26 -74
-25 -89 2 -10 18 -8 24 7 35 19 14 71 17 98 7z m226 -80 c0 -12 -4 -12 -20 -4
-11 6 -20 17 -20 26 0 12 4 12 20 4 11 -6 20 -17 20 -26z m-350 -24 c0 -5 -5
-10 -11 -10 -5 0 -7 5 -4 10 3 6 8 10 11 10 2 0 4 -4 4 -10z m-1550 -34 c0
-25 21 -29 27 -7 6 23 26 23 31 0 3 -16 -49 -42 -75 -37 -11 2 -19 14 -21 31
-3 22 1 27 17 27 12 0 21 -6 21 -14z m160 -6 c0 -5 -4 -10 -10 -10 -5 0 -10 5
-10 10 0 6 5 10 10 10 6 0 10 -4 10 -10z m11376 -435 c11 -79 11 -83 -38 -290
-27 -115 -54 -233 -60 -262 -6 -28 -17 -54 -24 -57 -8 -3 -55 -8 -106 -12
l-93 -6 130 133 c134 137 107 119 -91 -58 l-91 -81 -127 -11 c-70 -6 -152 -11
-182 -11 l-54 0 20 40 c11 22 19 40 17 40 -3 0 -16 -18 -31 -40 l-26 -40 -108
0 c-60 0 -111 3 -115 6 -9 9 154 194 328 372 123 126 167 164 255 219 132 83
169 99 250 108 36 4 74 14 85 21 38 27 49 14 61 -71z m-3634 -141 c1 -10 -39
-91 -88 -180 -50 -88 -103 -190 -119 -227 -29 -62 -31 -65 -60 -60 -16 3 -35
9 -41 12 -24 14 -134 142 -134 156 0 30 29 73 77 112 81 66 250 173 265 168 7
-3 29 8 48 24 36 30 50 29 52 -5z m3807 -875 c12 -59 -7 -147 -79 -358 -39
-113 -74 -215 -79 -226 -12 -28 -89 -275 -94 -305 -8 -40 -54 -164 -78 -212
l-22 -43 -35 95 c-19 52 -35 111 -35 131 0 19 17 75 38 125 65 156 82 212 151
516 l69 297 50 12 c27 6 57 15 65 20 20 11 40 -11 49 -52z m-395 -53 c-3 -8
-12 -12 -20 -9 -17 6 -9 23 11 23 8 0 12 -6 9 -14z m-7130 -528 c-6 -9 -44
-11 -44 -2 0 4 8 13 17 20 18 13 38 0 27 -18z m5298 -123 c18 -44 81 -161 140
-260 58 -99 121 -212 141 -251 19 -39 75 -138 124 -220 84 -139 148 -254 140
-254 -5 0 -198 66 -230 79 l-27 11 20 32 c11 18 20 43 20 56 0 12 -27 88 -61
167 -72 170 -178 338 -293 464 -43 47 -89 105 -104 130 l-26 44 54 48 c30 27
58 45 61 41 4 -4 22 -43 41 -87z"/>
<path d="M8828 8913 c6 -2 18 -2 25 0 6 3 1 5 -13 5 -14 0 -19 -2 -12 -5z"/>
<path d="M8098 8653 c6 -2 18 -2 25 0 6 3 1 5 -13 5 -14 0 -19 -2 -12 -5z"/>
<path d="M14020 7880 c8 -5 20 -10 25 -10 6 0 3 5 -5 10 -8 5 -19 10 -25 10
-5 0 -3 -5 5 -10z"/>
<path d="M6155 7615 c-5 -2 -50 -8 -99 -14 -68 -7 -93 -14 -109 -30 -16 -16
-19 -23 -9 -33 9 -9 16 -7 32 7 16 14 23 15 34 6 8 -7 12 -19 10 -26 -5 -11 0
-12 23 -5 15 5 41 12 56 15 15 3 37 17 49 30 12 14 29 25 38 25 9 0 25 7 36
15 18 13 17 14 -16 14 -19 0 -39 -2 -45 -4z"/>
<path d="M6267 7603 c-4 -3 -7 -13 -7 -21 0 -12 3 -12 15 -2 8 7 15 16 15 21
0 11 -14 12 -23 2z"/>
<path d="M5810 7570 c0 -11 5 -20 10 -20 6 0 10 9 10 20 0 11 -4 20 -10 20 -5
0 -10 -9 -10 -20z"/>
<path d="M5770 7558 c0 -9 5 -20 10 -23 13 -8 13 5 0 25 -8 13 -10 13 -10 -2z"/>
<path d="M5857 7563 c-12 -11 -8 -23 8 -23 8 0 19 -9 26 -21 8 -15 14 -18 22
-10 8 8 4 18 -13 36 -25 26 -32 29 -43 18z"/>
<path d="M5697 7553 c-10 -9 -9 -23 1 -23 5 0 17 7 28 15 19 14 19 14 -2 15
-11 0 -24 -3 -27 -7z"/>
<path d="M5540 7511 c0 -6 5 -13 10 -16 6 -3 10 1 10 9 0 9 -4 16 -10 16 -5 0
-10 -4 -10 -9z"/>
<path d="M6655 7450 c-3 -5 1 -10 9 -10 9 0 16 5 16 10 0 6 -4 10 -9 10 -6 0
-13 -4 -16 -10z"/>
<path d="M6215 7438 c-26 -14 -75 -59 -75 -70 0 -10 41 -10 55 0 11 8 47 73
43 78 -2 1 -12 -2 -23 -8z"/>
<path d="M6336 7428 c-21 -34 -28 -66 -16 -73 6 -4 18 10 28 34 14 35 21 41
47 41 17 0 37 5 45 10 11 7 0 10 -37 10 -44 0 -55 -4 -67 -22z"/>
<path d="M5367 7434 c-8 -8 1 -24 14 -24 5 0 9 7 9 15 0 15 -12 20 -23 9z"/>
<path d="M5624 7411 c-28 -13 -78 -21 -156 -26 -103 -6 -116 -5 -122 10 -4 12
-12 15 -24 10 -17 -7 -835 -48 -1079 -54 -24 -1 -43 -5 -43 -10 0 -16 61 -31
169 -41 56 -5 121 -15 144 -21 25 -6 68 -9 105 -5 44 5 78 2 118 -10 40 -11
71 -14 103 -9 25 4 63 8 84 8 41 1 49 18 15 34 l-23 11 25 10 c14 5 88 15 163
21 167 13 192 7 147 -34 -11 -10 -20 -24 -20 -32 0 -7 24 7 55 32 l56 45 68
-6 c38 -4 103 -3 145 1 65 6 81 11 101 33 24 26 33 52 18 52 -5 0 -27 -9 -49
-19z"/>
<path d="M5705 7420 c-10 -16 4 -30 28 -30 29 0 51 15 43 29 -9 14 -63 15 -71
1z"/>
<path d="M5855 7370 c-8 -13 15 -13 35 0 12 8 11 10 -7 10 -12 0 -25 -4 -28
-10z"/>
<path d="M5980 7370 c0 -5 4 -10 9 -10 6 0 13 5 16 10 3 6 -1 10 -9 10 -9 0
-16 -4 -16 -10z"/>
<path d="M6385 7370 c3 -5 11 -10 16 -10 6 0 7 5 4 10 -3 6 -11 10 -16 10 -6
0 -7 -4 -4 -10z"/>
<path d="M6135 7291 c-3 -5 -1 -12 5 -16 12 -7 30 2 30 16 0 12 -27 12 -35 0z"/>
<path d="M6342 7289 c2 -6 8 -10 13 -10 5 0 11 4 13 10 2 6 -4 11 -13 11 -9 0
-15 -5 -13 -11z"/>
<path d="M5055 7279 c-10 -15 1 -23 20 -15 9 3 13 10 10 16 -8 13 -22 13 -30
-1z"/>
<path d="M5332 7283 c-19 -8 -4 -23 24 -23 16 0 24 5 22 13 -5 13 -26 18 -46
10z"/>
<path d="M5586 7281 c-4 -7 -5 -15 -2 -18 9 -9 19 4 14 18 -4 11 -6 11 -12 0z"/>
<path d="M5704 7275 c-18 -15 -18 -15 10 -13 16 2 31 9 34 16 5 17 -20 15 -44
-3z"/>
<path d="M6008 7278 c9 -9 15 -9 24 0 9 9 7 12 -12 12 -19 0 -21 -3 -12 -12z"/>
<path d="M4119 7185 c-52 -28 -188 -48 -289 -41 -60 3 -100 2 -106 -4 -6 -6
-41 -14 -79 -19 -54 -6 -72 -13 -83 -29 -17 -25 -40 -29 -48 -7 -10 25 -30 17
-70 -27 -31 -35 -43 -42 -69 -40 -19 2 -41 -5 -57 -18 -16 -12 -29 -16 -33
-10 -11 17 -24 11 -39 -17 -14 -26 -15 -26 -16 -6 0 29 -17 38 -38 20 -9 -8
-39 -18 -67 -22 -27 -4 -56 -12 -62 -17 -8 -7 -13 -7 -13 -1 0 6 -21 0 -46
-13 -26 -13 -63 -26 -83 -29 -20 -3 -56 -12 -81 -20 -25 -8 -57 -15 -72 -15
-42 0 -376 -89 -453 -121 -100 -41 -216 -69 -320 -76 -49 -3 -94 -9 -100 -13
-5 -5 -59 -18 -120 -30 -60 -12 -205 -44 -322 -71 -117 -27 -256 -58 -310 -69
-93 -19 -257 -61 -458 -116 -125 -35 -197 -68 -189 -89 4 -10 13 -14 23 -10 9
4 21 8 27 9 7 1 18 7 25 13 34 26 331 106 463 124 43 6 101 19 128 30 30 12
73 19 113 19 42 0 90 9 139 25 40 14 134 34 207 46 74 11 163 29 199 40 36 10
109 23 162 29 53 5 127 17 165 26 43 10 91 14 133 11 47 -4 73 -1 94 10 17 9
55 19 86 23 30 5 87 13 125 19 105 16 460 59 545 66 41 4 129 20 195 36 66 16
147 33 180 38 33 5 98 17 145 26 47 9 112 20 145 24 33 5 76 14 95 21 85 31
80 26 80 80 0 44 -3 50 -20 50 -18 0 -20 -4 -15 -34 l7 -33 -68 -7 c-75 -8
-100 3 -71 31 14 14 22 15 54 5 43 -13 43 -13 52 30 6 31 9 33 56 36 39 3 56
10 87 37 24 22 52 37 78 41 42 7 66 26 55 44 -8 14 -35 12 -66 -5z m-359 -215
c0 -12 -28 -25 -36 -17 -9 9 6 27 22 27 8 0 14 -5 14 -10z m-120 -20 c0 -10
-63 -30 -95 -30 -12 0 -26 -5 -32 -11 -14 -14 -47 -4 -38 11 3 5 18 10 33 10
15 1 38 7 52 15 28 16 80 20 80 5z m-200 -60 c0 -5 -2 -10 -4 -10 -3 0 -8 5
-11 10 -3 6 -1 10 4 10 6 0 11 -4 11 -10z m-107 -7 c-13 -2 -35 -2 -50 0 -16
2 -5 4 22 4 28 0 40 -2 28 -4z"/>
<path d="M5687 7093 c-30 -8 -13 -28 24 -29 19 -1 46 -5 60 -8 27 -8 56 14 44
34 -6 10 -93 12 -128 3z"/>
<path d="M5043 7083 c-22 -8 -14 -23 11 -23 31 0 56 10 56 21 0 9 -46 11 -67
2z"/>
<path d="M5263 7078 c-13 -6 -23 -15 -23 -19 0 -16 19 -19 70 -9 36 7 57 7 66
0 7 -7 15 -7 18 -2 16 26 -91 51 -131 30z"/>
<path d="M4428 7069 c-27 -15 -23 -42 4 -34 11 4 53 10 91 14 43 3 72 11 75
19 5 15 -144 17 -170 1z"/>
<path d="M4640 7071 c0 -22 98 -28 103 -6 1 6 -22 11 -50 13 -32 2 -53 -1 -53
-7z"/>
<path d="M5440 7070 c0 -5 5 -10 10 -10 6 0 10 5 10 10 0 6 -4 10 -10 10 -5 0
-10 -4 -10 -10z"/>
<path d="M5558 7073 c6 -2 18 -2 25 0 6 3 1 5 -13 5 -14 0 -19 -2 -12 -5z"/>
<path d="M4166 7050 c-85 -17 -106 -29 -106 -58 0 -9 9 -12 28 -8 15 3 53 8
85 12 37 4 57 11 54 18 -3 7 22 12 77 14 91 4 102 8 85 28 -16 19 -111 17
-223 -6z"/>
<path d="M4005 6979 c-10 -15 1 -23 20 -15 9 3 13 10 10 16 -8 13 -22 13 -30
-1z"/>
<path d="M6250 6857 l-25 -10 23 -5 c26 -4 36 1 31 16 -3 6 -14 5 -29 -1z"/>
<path d="M6325 6860 c-3 -5 1 -10 10 -10 9 0 13 5 10 10 -3 6 -8 10 -10 10 -2
0 -7 -4 -10 -10z"/>
<path d="M4385 6801 c-3 -5 -1 -12 5 -16 12 -7 30 2 30 16 0 12 -27 12 -35 0z"/>
<path d="M4060 6780 c-12 -8 -12 -10 3 -16 23 -9 96 1 110 15 14 14 -91 15
-113 1z"/>
<path d="M4286 6762 c-30 -16 -68 -26 -102 -28 -29 -1 -58 -5 -64 -9 -6 -4
-17 -2 -24 4 -13 11 -28 9 -71 -9 -11 -5 -75 -11 -142 -14 -121 -5 -203 -21
-203 -38 0 -10 101 -5 285 13 55 6 148 14 206 19 100 7 169 28 169 49 0 5 3
16 6 25 8 20 0 19 -60 -12z"/>
<path d="M4384 6759 c-3 -6 -1 -16 5 -22 13 -13 65 8 56 23 -8 13 -52 13 -61
-1z"/>
<path d="M5710 6750 c0 -5 5 -10 10 -10 6 0 10 5 10 10 0 6 -4 10 -10 10 -5 0
-10 -4 -10 -10z"/>
<path d="M2092 6729 c2 -6 8 -10 13 -10 5 0 11 4 13 10 2 6 -4 11 -13 11 -9 0
-15 -5 -13 -11z"/>
<path d="M5578 6723 c7 -3 16 -2 19 1 4 3 -2 6 -13 5 -11 0 -14 -3 -6 -6z"/>
<path d="M15121 6674 c0 -11 3 -14 6 -6 3 7 2 16 -1 19 -3 4 -6 -2 -5 -13z"/>
<path d="M3611 6667 c-12 -15 -5 -27 16 -27 7 0 13 9 13 20 0 23 -13 26 -29 7z"/>
<path d="M3425 6639 c-11 -16 1 -21 34 -14 44 9 48 25 7 25 -19 0 -38 -5 -41
-11z"/>
<path d="M5053 6643 c-23 -9 -14 -23 15 -23 37 0 72 10 72 21 0 9 -66 11 -87
2z"/>
<path d="M4885 6611 c-3 -5 -1 -12 5 -16 13 -8 50 3 50 16 0 12 -47 12 -55 0z"/>
<path d="M2830 6573 c-56 -11 -68 -44 -12 -36 38 6 62 19 62 34 0 9 -7 10 -50
2z"/>
<path d="M2938 6573 c6 -2 18 -2 25 0 6 3 1 5 -13 5 -14 0 -19 -2 -12 -5z"/>
<path d="M2670 6540 c-6 -12 -9 -24 -7 -27 9 -8 48 18 44 30 -6 20 -25 19 -37
-3z"/>
<path d="M2543 6530 c-34 -14 -28 -30 11 -30 44 0 66 9 66 26 0 16 -42 18 -77
4z"/>
<path d="M2453 6513 c-12 -4 -19 -33 -9 -33 16 0 56 21 56 30 0 10 -25 12 -47
3z"/>
<path d="M2280 6501 c-53 -8 -70 -17 -70 -38 0 -13 9 -15 53 -10 68 8 157 35
157 47 0 11 -69 11 -140 1z"/>
<path d="M90 6255 c-7 -8 -10 -19 -6 -22 9 -9 38 8 38 22 -1 16 -18 16 -32 0z"/>
<path d="M2747 6002 c-10 -10 -17 -23 -17 -29 0 -6 -10 -22 -21 -37 -12 -15
-19 -29 -17 -32 7 -6 98 92 98 106 0 16 -25 12 -43 -8z"/>
<path d="M705 5961 c-10 -17 4 -31 31 -31 19 0 25 5 22 18 -4 19 -43 29 -53
13z"/>
<path d="M800 5960 c-13 -9 -13 -11 0 -20 27 -18 108 -4 88 15 -11 12 -73 16
-88 5z"/>
<path d="M665 5949 c-10 -15 3 -25 16 -12 7 7 7 13 1 17 -6 3 -14 1 -17 -5z"/>
<path d="M1855 5921 c5 -18 2 -21 -19 -21 -15 0 -34 5 -44 11 -13 8 -31 5 -75
-11 -60 -23 -87 -43 -87 -65 0 -23 19 -28 63 -17 23 6 68 16 100 23 32 7 60
16 63 21 3 4 14 8 25 8 22 0 26 -25 4 -34 -24 -9 -18 -29 8 -22 12 3 36 1 53
-6 24 -8 42 -7 87 6 93 27 116 67 65 113 -15 13 -22 15 -25 6 -3 -9 -10 -10
-23 -3 -13 7 -29 5 -54 -5 -43 -18 -117 -20 -113 -3 1 6 -6 14 -16 16 -15 3
-18 0 -12 -17z"/>
<path d="M2150 5922 c0 -5 7 -16 16 -23 14 -12 16 -11 13 5 -4 20 -29 35 -29
18z"/>
<path d="M2330 5910 c0 -11 5 -20 10 -20 6 0 10 9 10 20 0 11 -4 20 -10 20 -5
0 -10 -9 -10 -20z"/>
<path d="M12061 544 c0 -11 3 -14 6 -6 3 7 2 16 -1 19 -3 4 -6 -2 -5 -13z"/>
</g>
</svg>
