<?xml version="1.0" standalone="no"?>
<!DOCTYPE svg PUBLIC "-//W3C//DTD SVG 20010904//EN"
 "http://www.w3.org/TR/2001/REC-SVG-20010904/DTD/svg10.dtd">
<svg version="1.0" xmlns="http://www.w3.org/2000/svg"
 width="560.000000pt" height="1536.000000pt" viewBox="0 0 560.000000 1536.000000"
 preserveAspectRatio="xMidYMid meet">
<metadata>
Created by potrace 1.16, written by Peter Selinger 2001-2019
</metadata>
<g transform="translate(0.000000,1536.000000) scale(0.100000,-0.100000)"
fill="#000000" stroke="none">
<path d="M3168 15349 c-10 -5 -18 -17 -18 -24 0 -21 -30 -19 -46 3 -16 22 -47
23 -161 6 -50 -8 -112 -11 -138 -7 -26 3 -55 1 -68 -5 -12 -6 -44 -13 -72 -15
-32 -3 -55 -12 -65 -24 -10 -12 -29 -19 -57 -20 -60 -3 -112 -29 -119 -62 -4
-14 -17 -37 -30 -51 -31 -33 -43 -90 -20 -90 9 0 16 -8 16 -19 0 -11 3 -26 6
-35 4 -10 -17 -39 -59 -84 -36 -38 -92 -111 -126 -161 -34 -51 -85 -120 -114
-153 -47 -54 -52 -65 -52 -107 0 -35 8 -59 33 -97 52 -82 45 -125 -48 -279
-27 -45 -50 -93 -50 -106 0 -12 12 -42 26 -66 l26 -44 -41 -69 c-44 -74 -48
-92 -27 -130 9 -16 12 -42 9 -75 -5 -49 -4 -52 34 -86 36 -33 39 -40 39 -85
-1 -56 18 -99 54 -125 21 -16 48 -19 182 -20 l158 -2 -6 -26 c-3 -14 -8 -33
-10 -42 -2 -8 5 -51 16 -94 11 -43 20 -82 20 -86 0 -4 -14 -12 -32 -18 -17 -6
-64 -32 -104 -56 -101 -63 -134 -75 -247 -90 -72 -9 -107 -19 -126 -34 -14
-12 -53 -40 -86 -63 -137 -95 -243 -188 -264 -231 -55 -114 -141 -417 -141
-500 0 -47 17 -103 60 -203 l22 -50 -40 -110 c-116 -315 -161 -637 -141 -999
18 -337 48 -577 95 -773 20 -83 23 -110 15 -134 -6 -16 -55 -112 -110 -211
-140 -257 -168 -342 -196 -592 -9 -77 -25 -198 -36 -270 l-20 -130 -181 -415
c-99 -228 -189 -427 -199 -442 -11 -15 -73 -132 -138 -260 -120 -238 -191
-420 -191 -495 0 -21 -5 -56 -10 -78 -5 -22 -14 -94 -20 -160 -6 -66 -17 -156
-25 -200 -24 -137 -36 -241 -29 -259 4 -10 31 -31 61 -48 29 -17 60 -42 68
-57 16 -32 79 -90 132 -124 40 -25 191 -77 224 -77 48 0 166 107 196 179 8 19
11 45 8 62 -8 34 -62 89 -88 89 -18 0 -19 5 -13 63 5 46 14 71 35 96 15 19 31
34 36 33 6 -1 12 -40 15 -88 5 -79 7 -88 33 -110 15 -13 36 -24 46 -24 25 0
85 26 99 42 6 8 10 60 10 133 -1 197 43 471 89 557 25 46 25 50 15 132 -6 47
-23 116 -38 153 -25 61 -26 71 -15 113 19 75 107 241 167 315 42 52 95 148
210 378 126 255 153 302 158 280 2 -16 15 -123 27 -238 l23 -210 -36 -85 c-45
-105 -64 -176 -73 -260 -19 -192 -39 -310 -65 -375 -15 -38 -40 -114 -54 -168
-15 -53 -58 -182 -96 -285 -85 -232 -94 -267 -125 -483 -14 -96 -39 -259 -55
-364 -67 -432 -85 -656 -77 -955 9 -301 41 -442 127 -551 l31 -38 -32 -93
c-46 -132 -45 -191 9 -330 70 -186 75 -252 30 -407 -25 -83 -23 -105 28 -531
32 -261 35 -430 21 -1300 -6 -329 -5 -551 1 -615 l10 -100 -44 -135 c-47 -146
-83 -213 -135 -253 -34 -25 -209 -97 -454 -187 -85 -32 -224 -69 -403 -110
-287 -64 -350 -85 -394 -128 -37 -34 -35 -57 6 -98 39 -39 82 -44 142 -19 40
16 80 11 138 -18 60 -29 172 -45 366 -53 l175 -6 292 51 c168 29 323 51 363
51 40 0 127 -9 193 -21 193 -34 290 -15 354 68 59 76 61 97 33 298 -15 111
-12 205 10 291 11 43 43 201 71 349 97 529 116 599 289 1086 107 301 115 335
125 569 12 251 -22 497 -104 766 -22 71 -54 179 -71 239 -17 61 -47 138 -66
172 l-34 63 22 62 c16 48 22 99 27 218 l6 155 48 115 c26 63 56 150 67 193 12
48 49 138 94 226 171 337 322 762 352 993 4 27 8 47 10 46 1 -2 21 -116 44
-253 129 -779 320 -1417 518 -1725 49 -76 75 -138 143 -340 176 -516 554
-1795 695 -2350 77 -299 86 -375 56 -443 -68 -154 -319 -305 -752 -453 -234
-80 -456 -166 -473 -183 -7 -7 -3 -19 13 -36 49 -53 78 -62 205 -69 66 -4 194
-16 285 -28 231 -30 545 -30 715 1 66 11 160 33 208 48 l88 27 182 -44 c102
-24 204 -43 233 -43 141 3 222 98 212 249 -3 56 -13 81 -78 206 -255 491 -260
507 -260 748 0 275 22 656 65 1120 22 232 23 283 15 405 -25 337 -85 566 -194
735 -25 39 -98 125 -162 193 -184 192 -230 259 -268 387 -23 75 -46 231 -46
310 0 36 18 175 40 308 67 415 74 492 75 837 0 298 -1 319 -32 530 -33 227
-47 351 -59 538 l-6 107 71 66 c58 54 79 83 116 157 63 128 85 232 92 442 14
422 -104 801 -345 1113 -89 116 -99 151 -162 596 -23 154 -53 328 -68 386 -25
96 -27 121 -27 290 0 163 5 215 38 435 21 138 40 257 43 265 3 8 24 -28 48
-80 71 -159 206 -395 454 -799 l125 -204 9 -101 c5 -56 11 -306 13 -556 3
-425 14 -667 36 -784 6 -32 23 -68 49 -102 38 -50 40 -57 40 -123 0 -38 -5
-82 -11 -98 -14 -34 -14 -176 0 -220 7 -25 4 -48 -15 -109 -54 -170 -126 -470
-127 -534 -2 -62 -1 -65 27 -78 87 -43 136 -21 190 87 45 88 77 118 114 105
95 -33 70 -238 -39 -325 -61 -48 -139 -78 -285 -109 -176 -38 -203 -55 -173
-112 19 -36 69 -48 202 -48 l124 0 -5 -25 c-13 -68 34 -111 105 -95 54 13 198
74 242 104 20 13 60 32 89 41 72 23 84 47 112 208 12 73 31 175 42 227 11 52
24 154 28 225 5 72 12 171 16 222 8 105 -3 178 -43 286 -17 46 -33 72 -48 79
-21 9 -23 19 -29 141 -6 130 -6 134 29 256 98 348 142 726 116 996 -7 66 -27
199 -46 295 -46 235 -88 498 -125 775 -30 232 -54 336 -123 540 -65 190 -242
606 -347 815 -25 50 -50 125 -70 207 -17 70 -46 185 -65 254 -20 73 -35 149
-35 181 0 69 -27 174 -79 314 -47 124 -102 221 -159 279 -168 173 -310 287
-422 341 -74 35 -339 263 -391 335 -88 124 -109 163 -109 207 0 22 5 44 10 47
6 3 10 17 10 31 0 37 27 94 45 94 9 0 18 7 21 15 4 8 12 15 20 15 8 0 14 6 14
14 0 8 7 16 15 20 12 4 13 11 5 31 -13 35 -14 35 15 35 15 0 36 11 51 27 22
23 25 34 20 66 -5 27 -2 42 9 53 19 20 19 42 -1 100 -13 39 -14 54 -4 89 10
34 9 48 -4 80 l-16 38 40 43 c32 35 40 51 40 82 0 24 -8 49 -20 65 -11 14 -20
29 -20 35 0 5 9 17 20 27 29 27 25 35 -20 35 -47 0 -49 5 -15 31 13 11 22 26
19 34 -3 7 0 23 6 35 18 34 2 110 -31 139 -26 22 -26 26 -13 47 21 32 5 57
-50 80 -49 21 -74 57 -55 80 16 20 1 35 -28 28 -17 -5 -24 -3 -20 3 9 14 -30
63 -50 63 -9 0 -13 6 -10 14 9 22 -39 56 -78 56 -33 0 -35 2 -30 29 5 27 2 29
-33 35 -20 4 -49 7 -63 7 -18 0 -30 8 -37 25 -7 13 -17 25 -24 25 -28 3 -34 5
-75 27 -45 24 -87 28 -115 11z m102 -39 c0 -5 -2 -10 -4 -10 -3 0 -8 5 -11 10
-3 6 -1 10 4 10 6 0 11 -4 11 -10z m-603 -26 c-3 -3 -12 -4 -19 -1 -8 3 -5 6
6 6 11 1 17 -2 13 -5z m-138 -58 c-2 -2 -15 -9 -29 -16 -23 -12 -24 -12 -11 3
7 10 20 17 29 17 8 0 13 -2 11 -4z m-67 -31 c-2 -14 -11 -25 -18 -25 -17 0
-18 22 -2 38 19 19 26 14 20 -13z m1104 -40 c-19 -14 -36 -12 -36 6 0 5 12 9
28 9 26 -1 26 -1 8 -15z m69 -85 c-3 -5 -16 -10 -28 -10 -18 0 -19 2 -7 10 20
13 43 13 35 0z m250 -510 c-3 -5 -10 -10 -16 -10 -5 0 -9 5 -9 10 0 6 7 10 16
10 8 0 12 -4 9 -10z m-35 -85 c0 -8 -4 -15 -10 -15 -5 0 -7 7 -4 15 4 8 8 15
10 15 2 0 4 -7 4 -15z m-25 -405 c3 -5 1 -10 -4 -10 -6 0 -11 5 -11 10 0 6 2
10 4 10 3 0 8 -4 11 -10z m17 -45 c12 -17 0 -17 -26 0 -14 10 -26 21 -26 26 0
10 41 -10 52 -26z m-92 -225 c0 -5 -2 -10 -4 -10 -3 0 -8 5 -11 10 -3 6 -1 10
4 10 6 0 11 -4 11 -10z m-58 -72 c-7 -7 -12 -8 -12 -2 0 14 12 26 19 19 2 -3
-1 -11 -7 -17z"/>
</g>
</svg>
