<?xml version="1.0" standalone="no"?>
<!DOCTYPE svg PUBLIC "-//W3C//DTD SVG 20010904//EN"
 "http://www.w3.org/TR/2001/REC-SVG-20010904/DTD/svg10.dtd">
<svg version="1.0" xmlns="http://www.w3.org/2000/svg"
 width="1536.000000pt" height="1467.000000pt" viewBox="0 0 1536.000000 1467.000000"
 preserveAspectRatio="xMidYMid meet">
<metadata>
Created by potrace 1.16, written by Peter Selinger 2001-2019
</metadata>
<g transform="translate(0.000000,1467.000000) scale(0.100000,-0.100000)"
fill="#000000" stroke="none">
<path d="M3830 14645 c-25 -9 -76 -24 -113 -35 -67 -19 -68 -19 -85 0 -21 25
-29 25 -37 0 -8 -24 -28 -26 -45 -4 -24 28 -62 13 -104 -44 l-39 -53 -13 29
c-7 17 -33 44 -59 62 l-48 33 -34 -18 c-26 -14 -36 -16 -45 -7 -7 7 -19 12
-28 12 -25 0 -70 -24 -70 -37 0 -21 -19 -25 -42 -9 -30 21 -55 20 -62 -2 -5
-14 -18 -17 -75 -17 -52 0 -74 -4 -88 -18 -11 -9 -23 -14 -26 -10 -4 3 -7 1
-7 -5 0 -20 -104 -62 -184 -74 -62 -10 -76 -16 -76 -30 0 -10 -4 -18 -10 -18
-5 0 -10 7 -10 15 0 11 -7 14 -24 9 -13 -3 -27 -1 -30 5 -13 20 -28 12 -23
-11 4 -12 1 -41 -5 -65 -9 -38 -14 -43 -47 -49 -49 -9 -81 -30 -81 -56 0 -12
-30 -52 -74 -98 -50 -52 -76 -89 -81 -111 -4 -19 -16 -48 -26 -65 -10 -17 -19
-41 -19 -53 0 -18 4 -20 26 -15 26 7 27 6 20 -30 -6 -29 -3 -42 13 -63 23 -28
28 -83 9 -83 -7 0 -35 7 -62 15 -27 8 -59 12 -71 9 -17 -4 -24 0 -28 15 -4 16
-14 21 -39 22 -66 2 -77 -2 -92 -36 -3 -6 -9 -3 -15 5 -15 22 -40 3 -78 -60
-38 -63 -51 -131 -33 -175 7 -16 17 -59 22 -95 5 -36 13 -87 19 -115 6 -27 17
-86 25 -130 9 -44 29 -121 45 -171 28 -88 41 -108 132 -201 50 -52 118 -103
135 -103 12 0 23 -8 27 -21 5 -14 10 -17 19 -10 21 18 87 -12 102 -47 7 -17
22 -35 33 -42 12 -6 21 -18 21 -28 0 -9 6 -29 14 -44 12 -23 12 -27 0 -32 -11
-4 -14 -32 -14 -130 0 -68 3 -126 8 -128 4 -1 3 -62 -2 -134 -10 -156 -3 -229
22 -219 41 17 51 16 66 -8 13 -19 14 -30 6 -51 -5 -15 -10 -44 -10 -64 0 -34
1 -35 16 -16 8 10 13 13 9 7 -11 -23 7 -38 22 -18 12 18 13 18 13 -4 0 -12 4
-19 10 -16 6 3 10 17 10 30 0 13 5 27 11 31 8 4 9 -3 4 -25 -4 -20 -3 -31 4
-31 6 0 11 -10 11 -23 0 -12 24 -54 53 -93 30 -39 61 -82 70 -94 14 -20 18
-21 33 -9 9 7 19 21 23 30 5 15 9 16 24 4 12 -9 20 -31 24 -67 4 -43 10 -56
29 -65 17 -8 24 -8 28 1 2 6 5 0 5 -12 1 -14 9 -26 19 -29 16 -4 44 -37 97
-114 11 -15 26 -28 33 -29 6 0 12 -9 12 -21 0 -12 11 -35 25 -51 25 -29 26
-34 20 -132 -3 -58 -2 -93 3 -82 5 12 8 -10 7 -61 -2 -67 -6 -85 -26 -112 -20
-28 -24 -43 -22 -94 2 -36 -6 -100 -18 -153 -21 -93 -22 -151 -3 -147 13 2 30
-179 19 -197 -3 -5 2 -10 11 -10 15 0 13 -5 -9 -28 -15 -15 -27 -38 -27 -50 0
-13 -6 -22 -15 -22 -9 0 -15 -9 -15 -22 0 -13 -11 -47 -25 -77 -26 -56 -26
-87 2 -93 14 -2 16 -15 15 -68 l-1 -65 12 40 c12 37 14 38 19 16 5 -16 1 -33
-12 -51 -24 -34 -42 -108 -27 -113 6 -2 5 -11 -3 -27 -17 -31 -27 -200 -12
-200 7 0 6 -13 -4 -37 -26 -62 -35 -349 -15 -472 1 -2 19 -1 41 3 38 6 39 5
31 -17 -5 -13 -19 -42 -30 -63 -25 -46 -26 -55 -6 -48 30 12 17 -51 -23 -107
-44 -62 -55 -86 -42 -94 5 -3 -6 -38 -25 -78 -18 -39 -43 -100 -55 -134 -12
-35 -26 -60 -31 -57 -12 7 -105 -183 -120 -243 -7 -26 -18 -55 -25 -63 -26
-31 -45 -91 -38 -124 5 -28 1 -39 -27 -70 -18 -21 -43 -60 -56 -87 -12 -28
-49 -87 -82 -132 -61 -85 -111 -178 -111 -210 0 -11 -9 -31 -20 -46 -10 -16
-23 -46 -28 -67 -5 -21 -23 -61 -40 -88 -18 -28 -32 -61 -32 -75 0 -15 -9 -39
-19 -55 -11 -16 -17 -35 -14 -42 6 -17 -33 -187 -56 -239 -10 -23 -21 -59 -25
-80 -4 -22 -30 -98 -58 -170 -33 -85 -52 -151 -55 -190 -3 -33 -13 -82 -24
-108 -11 -27 -22 -73 -24 -102 -2 -30 -10 -64 -18 -77 -8 -13 -20 -50 -27 -83
-21 -100 -123 -329 -173 -388 -62 -74 -168 -235 -165 -250 2 -8 -10 -26 -27
-41 -21 -19 -26 -29 -17 -33 16 -6 -77 -109 -95 -105 -7 2 -23 -4 -37 -13 -18
-12 -25 -13 -28 -4 -2 7 -23 14 -47 15 -23 1 -70 12 -103 25 l-60 22 -19 -24
c-20 -27 -36 -20 -20 9 15 28 14 37 -3 23 -7 -6 -38 -20 -67 -29 -39 -13 -60
-28 -74 -50 -22 -34 -35 -40 -35 -17 0 18 2 18 -51 -1 -24 -8 -109 -33 -189
-55 -156 -43 -250 -81 -250 -100 0 -6 -31 -42 -68 -78 -82 -81 -109 -130 -95
-176 10 -32 8 -35 -72 -118 -130 -133 -196 -293 -151 -362 15 -23 23 -25 75
-24 32 1 63 -1 68 -4 26 -16 147 -27 203 -18 105 17 124 32 155 117 20 56 39
86 69 115 57 53 70 52 62 -8 -4 -27 -10 -72 -13 -102 -5 -50 -4 -54 13 -47 28
11 145 36 171 36 18 0 33 20 78 109 60 118 83 145 124 147 14 1 45 9 67 17 23
9 111 28 196 42 l154 25 105 -45 c57 -25 137 -64 177 -85 40 -22 82 -40 92
-40 10 0 47 -23 81 -50 88 -71 109 -74 217 -32 83 32 84 35 80 122 -3 66 -7
83 -33 120 -29 41 -30 48 -31 152 -1 118 1 121 55 94 15 -8 33 -22 40 -30 21
-26 31 -19 31 22 0 22 8 64 19 95 12 39 15 58 7 62 -8 3 -7 7 2 11 6 3 12 23
12 45 0 21 4 39 10 39 16 0 62 109 57 136 -4 25 7 34 16 12 11 -26 54 40 71
108 10 38 24 79 32 92 8 13 14 33 12 45 -2 14 7 30 24 45 14 12 30 36 33 53 4
17 22 44 41 61 18 17 36 39 39 49 4 11 12 19 18 19 15 0 74 70 94 111 8 17 26
41 39 54 13 13 24 31 24 38 0 8 8 17 19 20 10 2 42 40 71 83 96 143 251 344
265 344 17 0 65 64 168 227 55 86 104 147 169 212 51 50 95 91 100 91 4 0 52
60 106 133 54 73 127 157 161 187 38 33 90 95 131 155 37 55 84 120 104 144
21 24 44 58 53 75 9 17 35 52 58 78 69 77 80 132 77 383 -2 179 1 223 18 304
24 108 27 114 93 201 53 69 52 62 31 193 -7 42 4 46 63 25 47 -17 51 -4 15 46
-30 42 -42 86 -23 86 5 0 28 -7 51 -15 42 -15 42 -15 35 8 -4 12 -9 34 -12 50
-5 25 -3 27 26 27 17 0 31 5 31 12 0 6 8 21 19 32 12 13 25 57 36 118 9 54 21
100 26 103 17 11 343 -96 369 -121 36 -34 89 -51 101 -33 7 11 9 10 9 -4 0
-12 18 -26 56 -43 30 -13 96 -50 147 -82 181 -115 231 -131 252 -84 5 12 12
21 15 20 3 -2 40 -20 83 -41 53 -27 77 -44 77 -56 0 -33 -103 -151 -179 -205
-23 -17 -41 -34 -41 -39 0 -4 -13 -25 -29 -45 -17 -20 -54 -92 -84 -159 -42
-94 -65 -133 -100 -167 -25 -24 -83 -102 -130 -172 -46 -71 -100 -143 -119
-159 -54 -47 -193 -263 -213 -331 -9 -33 -30 -91 -46 -130 -16 -39 -28 -81
-27 -95 2 -17 -2 -25 -17 -27 -13 -2 -40 -35 -75 -89 -30 -47 -80 -125 -111
-174 -46 -72 -71 -99 -137 -149 -154 -116 -201 -189 -237 -372 -34 -172 -55
-209 -158 -285 -109 -81 -196 -121 -272 -128 -33 -2 -125 -10 -205 -16 -148
-12 -197 -26 -186 -55 3 -9 -8 -21 -32 -33 -86 -44 -117 -75 -131 -130 -7 -29
-20 -66 -29 -83 -8 -18 -19 -72 -24 -122 -5 -50 -18 -155 -30 -233 -20 -129
-21 -150 -9 -215 7 -40 16 -99 18 -130 5 -53 8 -59 46 -84 l40 -26 18 23 17
23 68 -63 c97 -90 104 -93 143 -80 45 16 63 57 69 162 l5 88 42 -45 42 -46 92
0 c90 0 92 1 101 26 6 15 19 39 30 54 25 36 25 76 0 120 -48 84 -70 131 -70
147 0 15 31 24 208 61 114 24 241 47 282 52 70 8 94 14 218 56 26 9 61 17 79
18 22 1 36 8 44 24 7 13 22 22 35 22 30 0 60 38 114 145 25 49 64 108 88 132
23 24 42 47 42 52 0 12 50 64 82 85 15 10 45 53 69 99 47 92 102 172 160 232
87 90 151 174 187 242 20 40 46 76 57 81 11 5 63 47 115 92 109 96 175 140
206 140 14 0 78 57 200 181 99 99 204 203 235 230 l56 49 33 -85 c24 -61 45
-97 79 -132 81 -85 90 -100 162 -281 39 -97 75 -178 80 -180 5 -2 9 -10 9 -17
0 -8 12 -31 26 -52 14 -21 41 -67 60 -103 48 -93 58 -104 83 -91 34 19 47 12
59 -26 19 -62 92 -185 113 -190 10 -3 19 -11 19 -19 0 -7 38 -45 85 -84 59
-50 100 -96 138 -153 30 -45 64 -91 77 -102 12 -11 30 -36 40 -55 10 -19 48
-69 84 -110 78 -88 111 -149 102 -186 -6 -21 -11 -25 -29 -20 -119 36 -189 49
-196 37 -6 -9 -15 -5 -32 17 -13 16 -76 67 -139 114 -191 140 -566 304 -648
283 -15 -4 -47 -8 -72 -10 -25 -2 -63 -9 -85 -17 -39 -13 -43 -19 -132 -198
-51 -102 -93 -195 -93 -208 0 -31 52 -132 84 -161 14 -13 35 -29 48 -35 12 -6
25 -22 28 -36 5 -20 13 -26 41 -28 72 -6 149 83 149 173 l0 42 64 11 c105 20
158 16 202 -15 21 -14 80 -45 129 -68 50 -23 96 -49 103 -58 18 -21 3 -48 -46
-83 -90 -66 -162 -153 -162 -196 0 -6 12 -43 28 -82 35 -90 88 -146 137 -146
19 0 65 -5 102 -11 67 -12 71 -11 203 31 117 37 148 43 235 45 79 2 108 -2
136 -16 93 -46 330 -48 472 -3 16 5 18 2 12 -15 -3 -12 -2 -21 3 -21 5 0 12
10 15 21 6 21 9 21 127 14 l121 -7 74 36 c40 20 79 36 85 36 20 0 98 81 137
141 21 32 43 59 50 59 6 0 15 5 18 10 7 12 -104 302 -141 369 -13 24 -24 57
-24 75 0 18 -29 90 -72 176 -39 80 -75 153 -79 162 -5 9 -6 73 -2 140 5 112 4
128 -15 172 -12 26 -19 52 -16 57 3 5 -4 30 -15 55 -12 26 -21 66 -21 90 0 31
-9 61 -30 97 -22 39 -29 65 -28 98 2 52 -24 119 -46 119 -9 0 -16 5 -16 11 0
6 -22 33 -49 60 -35 35 -53 62 -60 92 -5 23 -18 74 -29 114 -11 40 -18 74 -15
77 3 2 29 2 59 -1 69 -7 86 5 78 58 -7 44 -6 45 73 30 116 -23 121 -22 132 11
6 17 11 50 11 73 0 30 5 45 16 49 20 8 84 -9 127 -34 17 -10 64 -28 103 -39
65 -19 74 -20 100 -6 20 10 59 15 122 15 100 0 105 4 72 50 -11 15 -24 39 -29
53 -15 38 9 41 92 12 38 -13 74 -22 79 -19 4 3 13 25 19 50 l11 44 55 0 c85 0
93 8 86 85 -3 36 -3 65 1 65 4 0 36 -8 71 -17 61 -16 65 -16 84 1 17 16 20 16
28 2 8 -14 13 -13 51 5 42 21 43 21 57 3 8 -11 12 -26 9 -34 -15 -42 -34 -145
-29 -157 3 -8 -6 -52 -20 -96 -70 -232 -106 -446 -104 -624 1 -60 -2 -129 -6
-154 -4 -29 -3 -49 3 -53 7 -4 7 -17 0 -39 -6 -17 -14 -140 -18 -272 -7 -198
-13 -263 -35 -375 -39 -192 -38 -305 3 -476 18 -72 32 -139 32 -149 0 -9 11
-26 25 -37 14 -11 34 -36 45 -56 21 -41 120 -146 194 -207 27 -22 67 -58 90
-81 23 -22 74 -66 114 -98 40 -32 77 -68 82 -80 4 -12 28 -38 53 -57 25 -19
58 -54 74 -79 166 -253 235 -350 304 -421 44 -45 79 -86 79 -90 0 -5 7 -9 15
-9 9 0 20 -12 26 -28 15 -40 49 -72 76 -72 13 0 23 -6 24 -12 1 -18 140 -118
164 -118 11 0 29 -7 39 -15 11 -8 30 -15 43 -15 13 0 23 -4 23 -10 0 -5 9 -10
20 -10 10 0 24 -9 30 -20 6 -10 25 -22 44 -25 23 -5 37 -15 45 -32 7 -14 27
-45 46 -68 19 -23 35 -48 35 -55 0 -10 -33 -58 -58 -82 -13 -14 -385 -260
-467 -310 -67 -41 -144 -108 -157 -135 -1 -5 -43 -34 -91 -66 -48 -32 -85 -62
-82 -66 3 -5 -11 -19 -30 -31 -19 -12 -35 -28 -35 -36 0 -8 -4 -14 -9 -14 -19
0 -70 -51 -65 -65 4 -8 -15 -26 -50 -49 -53 -34 -73 -55 -41 -42 30 11 13 -11
-77 -100 -121 -119 -200 -205 -194 -212 3 -3 12 1 21 8 12 10 15 10 15 -1 -1
-20 -36 -59 -53 -59 -23 0 -95 -79 -133 -146 -18 -33 -65 -95 -104 -138 -45
-49 -70 -85 -70 -100 0 -14 -10 -30 -26 -41 -18 -12 -25 -24 -23 -43 3 -28
-51 -145 -72 -158 -9 -5 -10 -2 -6 9 19 47 16 48 -12 7 -78 -111 -141 -215
-137 -227 3 -8 -2 -13 -15 -13 -24 0 -71 -71 -89 -135 -9 -31 -17 -44 -26 -41
-16 6 -44 -42 -44 -76 0 -13 -7 -32 -15 -42 -10 -13 -13 -32 -9 -58 5 -31 4
-37 -8 -33 -12 5 -17 -9 -26 -62 -6 -37 -28 -126 -47 -198 -76 -271 -107 -505
-76 -563 6 -12 11 -34 11 -50 0 -18 6 -32 16 -36 27 -11 62 -7 78 9 8 8 23 15
33 15 10 0 23 4 28 8 15 10 55 99 55 121 0 10 20 62 45 116 25 53 50 118 57
143 6 26 17 52 23 57 6 6 24 39 39 75 15 36 34 77 42 92 8 14 14 33 14 41 0 9
5 17 11 19 6 2 15 25 20 51 5 26 23 68 40 93 17 25 55 95 86 157 30 62 75 141
99 177 24 36 47 76 50 90 4 14 19 39 35 55 16 17 48 65 71 107 24 42 87 127
142 190 54 62 121 145 148 183 27 39 55 70 61 70 17 0 136 133 155 173 9 17
21 32 27 32 23 0 96 61 131 110 19 27 44 52 54 55 10 3 22 15 25 26 4 12 15
19 31 19 17 0 33 13 55 42 16 24 36 43 44 43 8 0 57 38 109 85 52 47 127 105
167 129 40 25 100 71 134 103 35 32 67 58 72 58 15 0 186 140 208 170 11 16
31 31 45 34 14 2 46 21 72 40 26 20 51 36 56 36 4 0 37 20 73 45 66 46 93 55
103 33 5 -10 7 -10 12 0 10 21 22 13 29 -20 7 -29 96 -128 117 -128 4 0 8 -25
8 -55 0 -63 -7 -69 -102 -81 -42 -6 -66 -17 -113 -53 -33 -25 -74 -59 -90 -76
-17 -16 -77 -70 -134 -120 -191 -167 -224 -200 -243 -242 -10 -24 -23 -43 -28
-43 -6 0 -7 -19 -3 -45 7 -56 -22 -258 -44 -300 -9 -16 -27 -51 -41 -78 -32
-62 -40 -133 -18 -176 10 -18 20 -55 23 -82 4 -37 12 -55 31 -69 27 -22 72
-26 102 -10 16 9 26 1 65 -50 50 -65 47 -65 132 -21 70 35 90 67 96 150 3 40
8 75 10 77 2 3 31 -9 63 -26 47 -25 66 -30 93 -25 74 14 130 59 138 112 3 21
13 52 21 68 8 17 16 42 17 58 3 33 19 54 48 63 12 4 43 25 68 48 31 28 68 48
116 64 94 30 357 161 413 206 25 20 50 36 56 36 6 0 24 12 40 26 16 14 55 43
86 65 32 22 68 53 80 69 12 17 50 49 85 72 35 22 81 60 101 83 43 49 120 191
152 283 22 59 22 67 10 132 -7 37 -10 75 -7 83 5 14 -41 57 -62 57 -5 0 -13 9
-16 20 -3 11 -10 20 -15 20 -4 0 -27 15 -49 34 -23 19 -51 38 -64 42 -12 4
-40 24 -63 44 -23 21 -52 41 -65 45 -28 9 -299 281 -299 300 0 22 158 135 248
177 46 22 86 46 89 54 3 9 60 52 127 96 66 44 161 110 209 146 49 36 115 78
148 93 32 15 81 49 108 74 28 26 54 44 59 41 5 -3 18 4 28 16 11 11 50 41 87
65 38 24 86 61 106 81 21 20 52 45 70 54 21 12 31 24 29 35 -2 12 9 24 34 36
21 11 38 25 38 33 0 7 14 21 31 30 23 11 30 21 26 35 -4 15 0 19 17 19 21 0
56 27 56 44 0 3 13 21 30 39 16 18 68 75 117 127 48 52 95 98 105 102 10 4 18
12 18 17 0 6 26 41 58 78 32 38 67 81 78 98 10 16 33 42 50 57 18 16 35 39 38
52 3 14 15 28 27 31 11 4 24 16 29 28 4 12 29 48 54 81 25 32 46 64 46 70 0 7
16 28 36 47 41 40 118 153 198 291 37 65 66 103 85 113 23 11 30 23 36 62 7
49 34 127 42 120 2 -2 -1 -17 -7 -33 -9 -27 -8 -27 26 11 42 47 84 129 84 166
0 14 4 29 10 35 5 5 27 53 48 106 34 83 38 104 34 153 -3 42 -2 56 7 51 6 -4
11 -19 11 -34 1 -20 8 -8 29 43 16 39 44 104 64 145 50 107 73 190 56 201 -12
8 -11 12 3 22 12 9 22 44 32 108 8 52 24 138 35 191 12 54 23 133 24 177 2 44
8 85 14 93 6 8 9 122 9 314 -1 266 -3 304 -18 320 -11 14 -17 44 -21 104 -4
78 -6 85 -24 82 -15 -2 -22 6 -31 37 -7 21 -10 45 -7 53 3 8 -3 50 -14 94 -11
43 -23 111 -26 151 -6 58 -11 73 -25 78 -23 7 -85 102 -83 126 1 10 -12 30
-30 45 -17 14 -32 35 -32 47 -1 12 -7 23 -13 25 -7 2 -12 14 -12 26 0 12 -16
37 -35 56 -19 19 -35 42 -35 52 0 31 -122 206 -153 219 -16 7 -53 40 -83 74
-30 34 -67 68 -82 76 -15 7 -40 28 -55 46 -16 18 -35 33 -43 33 -8 0 -19 11
-25 24 -7 14 -31 35 -55 48 -24 13 -44 30 -44 38 0 8 -15 21 -32 28 -18 8 -43
18 -55 23 -15 5 -23 17 -23 32 0 21 -8 26 -66 40 -60 15 -141 54 -131 63 2 2
18 -1 36 -7 18 -6 35 -9 38 -5 10 10 -68 38 -124 43 -58 6 -57 6 -43 33 15 27
-14 48 -38 28 -21 -19 -48 -13 -32 7 13 16 -23 45 -56 45 -11 0 -35 5 -53 11
-22 8 -44 8 -71 1 -44 -11 -50 -7 -22 15 15 12 12 13 -24 8 -36 -6 -45 -3 -67
19 -20 20 -36 26 -67 26 -25 0 -39 4 -35 10 3 6 -2 10 -12 10 -11 0 -24 5 -31
12 -9 9 -15 9 -24 0 -14 -14 -68 -16 -68 -3 0 5 10 7 23 4 21 -4 21 -4 3 11
-29 23 -120 39 -187 31 -40 -5 -59 -3 -59 4 0 6 -19 11 -45 11 -25 0 -45 4
-45 9 0 5 -19 8 -42 8 -24 -1 -64 5 -90 13 -41 12 -55 12 -95 1 -85 -24 -103
-25 -103 -6 0 16 -12 17 -157 12 -138 -5 -233 -18 -295 -42 -13 -5 -18 -2 -18
9 0 22 -17 20 -30 -3 -9 -18 -12 -19 -41 -4 -28 14 -35 14 -92 -5 -39 -13 -64
-17 -68 -10 -4 6 -23 -1 -49 -17 -23 -15 -59 -29 -79 -32 -20 -3 -47 -14 -60
-25 -13 -10 -28 -18 -34 -18 -6 0 -19 -8 -29 -17 -14 -13 -41 -17 -118 -19
-75 -2 -104 -6 -116 -18 -21 -21 -48 -21 -40 0 5 13 2 15 -16 10 -59 -17 -81
-19 -74 -8 5 8 -1 13 -16 14 -118 8 -137 16 -231 102 -48 45 -94 81 -102 81
-8 0 -35 17 -60 38 -25 21 -64 47 -88 57 -23 10 -69 42 -102 70 -33 28 -82 63
-110 77 -27 14 -52 30 -54 35 -5 14 -45 48 -85 72 -46 28 -165 110 -196 135
-14 11 -31 21 -37 21 -7 0 -13 4 -13 9 0 5 -37 34 -82 65 -46 31 -123 86 -173
121 -148 107 -237 165 -251 165 -7 0 -15 8 -18 18 -7 22 -151 126 -208 151
-24 10 -73 44 -108 75 -36 31 -83 65 -106 76 -22 11 -46 31 -51 43 -6 13 -43
43 -82 66 -39 23 -71 46 -71 51 0 10 -133 100 -149 100 -6 0 -21 11 -33 25
-12 14 -37 27 -57 30 -56 10 -84 24 -77 40 3 10 -3 17 -19 21 -14 3 -25 12
-25 20 0 8 -6 14 -14 14 -8 0 -16 4 -18 10 -1 5 -30 17 -63 25 -33 9 -69 25
-81 35 -11 11 -27 20 -36 20 -9 0 -21 7 -28 15 -7 8 -25 15 -40 15 -15 0 -48
11 -74 25 -26 14 -54 25 -63 25 -9 0 -31 12 -50 26 -18 14 -54 34 -78 45 -31
14 -45 26 -45 39 0 11 -5 20 -11 20 -10 0 -46 26 -88 63 -8 6 -39 21 -70 32
-42 15 -55 25 -53 38 2 10 -3 17 -12 17 -8 0 -44 16 -80 35 -37 19 -80 35 -96
35 -17 0 -30 5 -30 10 0 6 5 10 11 10 5 0 7 4 4 10 -8 13 -130 50 -166 50 -15
0 -32 6 -36 13 -11 17 -145 58 -193 59 -35 0 -40 3 -35 19 6 17 3 18 -19 9
-20 -7 -26 -6 -26 3 0 14 -96 47 -137 47 -15 0 -36 8 -47 19 -24 21 -78 41
-113 41 -13 0 -26 7 -29 15 -4 8 -17 15 -30 15 -14 0 -38 10 -54 21 -20 15
-36 20 -54 15 -19 -5 -24 -3 -20 7 3 8 -11 17 -40 25 -46 12 -76 47 -76 88 0
12 -6 15 -22 10 -106 -29 -132 -16 -134 71 -1 30 -5 57 -8 60 -3 4 -46 -5 -94
-20 l-87 -27 -28 33 c-15 17 -33 32 -40 33 -6 0 -20 2 -29 2 -28 3 -21 36 12
61 17 12 28 27 24 32 -4 7 -10 7 -17 0 -13 -13 -47 -15 -47 -2 0 5 -21 17 -47
27 -63 23 -74 33 -69 58 3 12 0 9 -6 -6 -14 -34 -28 -36 -29 -5 l0 22 -9 -22
c-13 -31 -24 -29 -58 13 -17 20 -35 34 -40 30 -5 -3 -12 0 -15 8 -5 13 -51 27
-95 28 -18 0 -21 4 -17 19 9 28 -7 23 -40 -11 -26 -27 -30 -29 -37 -13 -3 10
-7 34 -7 53 -1 61 -46 82 -77 36 -8 -14 -25 -26 -37 -28 -13 -2 -29 -17 -39
-38 l-18 -35 0 62 c0 34 -4 64 -9 67 -4 3 -25 -4 -47 -14 -55 -29 -67 -26 -62
11 4 22 0 33 -11 37 -9 3 -21 12 -27 21 -10 13 -16 12 -53 -2 -23 -10 -47 -17
-55 -17 -16 0 -31 173 -25 310 10 232 0 290 -46 290 -14 0 -34 9 -45 20 -18
18 -33 20 -127 20 -88 0 -114 -4 -150 -21 -23 -11 -45 -25 -49 -30 -3 -5 -15
-9 -27 -9 -12 0 -42 -14 -67 -31 -25 -16 -63 -39 -84 -51 -39 -20 -40 -20 -53
-2 -8 11 -11 29 -8 41 5 22 -37 78 -130 174 -14 15 -25 34 -25 43 0 9 -16 26
-35 37 -23 14 -46 42 -67 81 -61 115 -167 197 -254 198 -13 0 -24 8 -27 20 -5
19 -33 26 -75 21 -7 -1 -21 8 -31 21 -17 20 -29 23 -98 25 -49 2 -95 -3 -123
-12z m9550 -5254 c0 -26 5 -31 47 -45 57 -19 54 -19 47 -1 -10 25 20 8 45 -26
19 -25 25 -28 43 -18 18 10 24 8 38 -11 10 -13 22 -20 28 -16 7 4 21 2 33 -4
29 -16 31 -9 14 40 -8 23 -15 58 -15 77 0 30 2 34 15 23 8 -7 17 -28 20 -49
10 -62 25 -111 35 -111 6 0 10 5 10 12 0 6 7 4 18 -5 28 -26 32 -21 25 29 -5
38 -3 46 8 42 8 -3 15 -22 17 -49 4 -49 22 -80 22 -36 0 15 5 27 10 27 6 0 10
-16 10 -35 0 -25 5 -37 18 -42 25 -9 62 -44 62 -60 0 -7 4 -13 9 -13 5 0 13
-12 18 -26 l8 -25 38 36 c20 20 37 42 37 49 0 16 27 29 41 20 5 -3 9 -11 9
-19 0 -21 86 -65 100 -51 10 8 11 2 7 -29 -4 -25 -3 -35 2 -26 7 11 14 -2 27
-45 13 -47 18 -55 24 -39 9 23 8 24 35 -65 20 -63 120 -256 139 -267 7 -5 18
-21 23 -38 6 -16 16 -29 22 -28 6 2 11 -8 11 -21 0 -13 7 -29 15 -36 8 -6 17
-22 21 -33 3 -12 19 -42 34 -67 31 -50 27 -1 46 -567 5 -144 10 -183 20 -183
21 0 17 -18 -13 -69 -26 -44 -33 -76 -49 -221 -6 -51 -5 -54 10 -35 25 32 19
3 -17 -82 -19 -43 -37 -93 -40 -112 -7 -34 -7 -34 13 -16 29 26 25 5 -11 -67
-21 -41 -29 -68 -24 -85 3 -14 -2 -42 -14 -68 -14 -31 -16 -45 -8 -48 8 -3 7
-10 -5 -23 -18 -21 -68 -127 -68 -146 0 -6 13 7 28 28 16 21 37 46 47 54 17
14 18 13 11 -5 -5 -11 -11 -31 -14 -45 -3 -14 -15 -32 -26 -40 -61 -43 -97
-84 -92 -105 4 -14 -6 -39 -29 -73 -25 -36 -35 -62 -35 -89 0 -30 -8 -45 -42
-81 -37 -37 -43 -49 -43 -85 0 -34 -4 -43 -20 -45 -22 -3 -60 -58 -56 -80 1
-8 -5 -22 -14 -32 -8 -9 -13 -24 -10 -33 7 -16 -10 -31 -35 -32 -8 0 -15 -7
-16 -15 -2 -34 -5 -39 -24 -45 -11 -3 -20 -12 -20 -19 0 -7 -9 -21 -20 -31
-12 -10 -18 -25 -15 -33 3 -8 -3 -21 -15 -29 -26 -18 -100 -127 -100 -148 0
-8 -10 -20 -22 -26 -13 -6 -43 -42 -68 -81 -25 -39 -82 -106 -128 -149 -46
-44 -78 -79 -71 -79 19 0 -8 -27 -52 -52 -21 -12 -41 -30 -45 -40 -3 -10 -14
-18 -25 -18 -10 0 -19 -7 -19 -15 0 -8 -10 -20 -22 -26 -23 -12 -148 -135
-148 -145 0 -3 23 13 51 35 29 23 56 41 60 41 36 0 -52 -81 -124 -115 -54 -26
-97 -62 -97 -81 0 -8 -12 -20 -27 -28 -16 -8 -63 -50 -106 -95 -43 -45 -82
-81 -88 -81 -5 0 -48 -37 -94 -81 -60 -58 -85 -89 -85 -106 0 -20 -12 -30 -72
-58 -40 -19 -78 -35 -84 -35 -7 0 -85 -55 -176 -122 -90 -68 -217 -159 -283
-202 l-119 -79 -46 25 c-57 32 -61 55 -20 111 l31 42 -53 49 c-29 27 -53 54
-53 60 0 7 -18 29 -40 49 -33 32 -36 37 -17 32 43 -12 6 33 -46 58 -26 12 -49
23 -51 24 -2 1 4 18 13 37 9 19 16 37 16 40 0 10 -104 66 -123 66 -16 0 -13
10 21 73 39 70 40 74 23 89 -11 9 -29 14 -45 11 -15 -3 -26 -1 -26 6 0 6 5 11
10 11 25 0 6 20 -36 37 -43 17 -45 20 -39 50 4 20 1 33 -7 35 -8 3 -7 11 5 28
20 29 24 61 5 42 -17 -17 -41 -15 -35 2 8 20 -18 40 -98 76 -39 17 -82 43 -97
57 -14 14 -30 24 -35 22 -4 -1 -17 14 -28 35 l-20 37 23 17 23 18 -75 52 c-41
29 -89 55 -105 58 -27 6 -31 11 -31 40 0 26 -3 32 -16 27 -13 -5 -12 1 5 35
12 23 21 59 21 80 0 21 7 47 15 58 8 10 15 27 15 37 0 9 6 17 14 17 23 0 27
39 5 51 -22 12 -19 34 17 118 14 30 21 63 18 75 -3 14 1 27 10 35 9 8 16 22
16 33 0 10 7 21 15 25 9 3 28 29 42 57 14 28 48 86 74 129 27 43 49 86 49 95
0 24 30 52 57 52 38 0 80 50 99 119 10 33 20 61 23 61 3 0 6 48 6 108 0 92 3
114 23 156 28 57 52 144 46 161 -3 7 2 18 11 25 8 7 15 27 15 44 0 57 29 145
92 279 33 73 61 141 60 152 -1 13 15 32 44 54 24 18 44 40 44 47 0 8 18 34 40
58 22 24 40 51 40 60 0 9 6 16 14 16 21 0 36 53 48 175 9 90 15 115 33 135 38
42 48 72 52 147 3 53 -1 81 -12 103 -18 34 -12 70 11 70 18 0 18 20 -1 44 -8
11 -13 28 -10 37 3 10 2 20 -3 23 -23 14 -63 118 -66 170 -2 41 -8 60 -22 71
-16 12 -17 16 -5 24 12 8 9 22 -18 83 -25 58 -32 86 -29 124 l3 49 40 -42 c62
-66 95 -57 95 27 l0 39 57 -35 c31 -19 61 -34 66 -34 5 0 7 13 4 29 -7 36 9
97 27 104 8 3 26 4 41 3 25 -3 27 -1 21 25 -3 17 -1 29 5 29 5 0 12 -13 15
-29 6 -27 9 -29 45 -25 21 2 39 -1 39 -6 0 -6 5 -10 11 -10 6 0 9 15 7 37 -2
22 2 38 10 40 7 3 12 -5 12 -21 0 -32 15 -34 24 -3 6 21 7 21 21 3 14 -19 15
-18 24 5 8 21 10 22 16 7 5 -12 18 -18 37 -18 17 0 27 4 23 10 -4 6 -10 8 -14
5 -9 -5 -21 42 -21 81 0 21 25 44 49 44 5 0 11 -10 13 -22 2 -13 9 -22 15 -21
6 2 21 -13 33 -32 12 -20 31 -40 42 -46 18 -9 19 -8 13 10 -3 12 -2 21 3 21 6
0 12 -5 14 -12 3 -7 12 -5 26 8 21 17 22 25 16 87 -5 47 -3 67 5 67 6 0 11 -8
12 -17 0 -10 1 -46 2 -79 1 -43 7 -68 20 -81 9 -11 17 -27 17 -36 0 -26 17
-29 24 -4 3 12 6 41 6 65 0 23 4 42 10 42 5 0 16 16 24 35 8 19 17 35 20 35 3
0 38 -13 78 -29 121 -47 119 -47 153 10 31 53 45 57 56 18 4 -13 7 -20 8 -15
1 5 12 -1 26 -14 l25 -23 0 31 c0 55 15 80 44 75 14 -3 26 -11 26 -18 0 -13
28 -41 34 -34 3 2 0 24 -4 49 -10 48 -3 110 11 110 5 0 9 -13 9 -29z"/>
<path d="M12695 4550 c-13 -6 -15 -9 -5 -9 8 0 22 4 30 9 18 12 2 12 -25 0z"/>
<path d="M2546 7823 c-6 -14 -5 -15 5 -6 7 7 10 15 7 18 -3 3 -9 -2 -12 -12z"/>
<path d="M8226 7061 c-4 -7 -5 -15 -2 -18 9 -9 19 4 14 18 -4 11 -6 11 -12 0z"/>
</g>
</svg>
