<?xml version="1.0" standalone="no"?>
<!DOCTYPE svg PUBLIC "-//W3C//DTD SVG 20010904//EN"
 "http://www.w3.org/TR/2001/REC-SVG-20010904/DTD/svg10.dtd">
<svg version="1.0" xmlns="http://www.w3.org/2000/svg"
 width="210.000000pt" height="143.000000pt" viewBox="0 0 210.000000 143.000000"
 preserveAspectRatio="xMidYMid meet">
<metadata>
Created by potrace 1.16, written by Peter Selinger 2001-2019
</metadata>
<g transform="translate(0.000000,143.000000) scale(0.100000,-0.100000)"
fill="#000000" stroke="none">
<path d="M1490 1415 c-7 -8 -10 -26 -8 -40 5 -22 2 -25 -22 -25 -15 0 -40 -10
-54 -21 -25 -20 -27 -27 -24 -80 l3 -59 -75 0 c-41 1 -95 5 -120 10 -29 5 -47
5 -51 -2 -4 -5 -42 -16 -85 -24 -44 -8 -90 -21 -104 -28 -14 -8 -53 -22 -88
-31 -34 -10 -60 -20 -58 -23 3 -2 -26 -26 -63 -53 -39 -27 -96 -81 -131 -124
-34 -41 -65 -75 -69 -75 -5 0 -11 -9 -14 -19 -9 -35 -49 -50 -177 -65 -150
-18 -213 -36 -269 -76 -58 -42 -81 -84 -81 -145 1 -101 61 -174 223 -271 242
-144 567 -248 813 -261 120 -7 154 -1 154 27 0 18 -7 20 -72 20 -206 0 -480
82 -761 228 -124 64 -229 152 -247 207 -37 111 68 180 272 180 100 0 108 -2
133 -25 24 -22 26 -30 20 -65 -4 -22 -10 -63 -14 -91 -4 -29 -13 -59 -20 -67
-27 -34 15 -77 46 -46 7 7 20 4 44 -10 27 -17 44 -19 94 -14 33 3 67 12 75 19
12 12 11 17 -6 41 -12 16 -40 34 -63 42 -44 14 -78 52 -66 72 5 8 22 9 54 3
25 -4 80 -8 121 -9 124 -2 360 -18 360 -24 0 -3 51 -7 113 -8 140 -2 246 -33
289 -86 25 -30 32 -32 105 -38 121 -9 152 14 98 71 l-25 26 57 -4 c42 -3 63 1
78 12 20 16 19 16 -14 47 -30 27 -39 31 -77 26 -49 -5 -71 6 -105 54 l-22 31
44 44 c56 57 112 79 184 71 63 -6 121 7 151 34 11 10 25 19 32 19 6 0 16 9 22
19 19 36 11 69 -23 103 -18 18 -43 49 -55 68 -24 41 -112 115 -223 188 -67 44
-79 57 -94 99 -43 115 -53 133 -89 148 -45 19 -100 19 -116 0z m134 -910 c23
-30 33 -35 69 -35 l42 0 -30 -20 c-16 -11 -33 -20 -38 -20 -14 0 -97 82 -97
96 0 25 27 15 54 -21z"/>
</g>
</svg>
