<?xml version="1.0" standalone="no"?>
<!DOCTYPE svg PUBLIC "-//W3C//DTD SVG 20010904//EN"
 "http://www.w3.org/TR/2001/REC-SVG-20010904/DTD/svg10.dtd">
<svg version="1.0" xmlns="http://www.w3.org/2000/svg"
 width="1536.000000pt" height="1059.000000pt" viewBox="0 0 1536.000000 1059.000000"
 preserveAspectRatio="xMidYMid meet">
<metadata>
Created by potrace 1.16, written by Peter Selinger 2001-2019
</metadata>
<g transform="translate(0.000000,1059.000000) scale(0.100000,-0.100000)"
fill="#000000" stroke="none">
<path d="M7730 10584 c-14 -3 -65 -13 -115 -24 -49 -10 -130 -22 -180 -25
-243 -17 -555 -95 -820 -206 -119 -49 -286 -137 -439 -231 -75 -46 -177 -108
-227 -138 -181 -110 -355 -257 -486 -409 -35 -41 -108 -114 -162 -162 -166
-147 -317 -342 -422 -545 l-52 -99 84 81 c46 44 146 138 223 209 140 131 257
261 311 347 26 41 38 50 82 63 29 9 59 18 67 21 11 4 17 -4 21 -29 8 -44 -15
-97 -59 -133 -17 -15 -88 -78 -159 -142 -298 -271 -546 -590 -715 -919 l-71
-139 25 -44 c35 -62 62 -89 109 -111 120 -55 238 -7 956 389 1038 572 1080
592 1394 658 118 25 149 28 350 28 231 1 287 -5 470 -51 273 -68 546 -208 770
-395 222 -185 429 -451 484 -623 13 -38 54 -143 92 -233 80 -189 109 -285 109
-360 0 -37 9 -75 30 -123 39 -93 61 -170 110 -384 62 -277 109 -407 195 -539
18 -28 45 -88 60 -133 63 -193 219 -467 397 -692 99 -126 442 -473 583 -590
365 -301 733 -534 1350 -854 184 -95 293 -157 317 -181 20 -20 43 -36 52 -36
9 0 67 -48 129 -106 61 -59 148 -134 192 -167 139 -104 182 -152 229 -252 43
-91 103 -160 161 -187 18 -8 24 -16 19 -27 -23 -55 -44 -139 -44 -177 0 -86
39 -144 141 -214 65 -45 91 -81 87 -117 -4 -37 -44 -62 -108 -70 -64 -7 -86
-23 -101 -73 l-11 -38 -55 13 c-68 16 -102 40 -126 88 -24 47 -13 67 55 104
28 15 58 39 67 52 l15 24 -61 -5 c-92 -6 -173 -51 -269 -147 l-79 -80 -205
-89 c-172 -75 -267 -108 -597 -206 l-391 -117 -269 -24 -269 -24 -169 19 c-94
11 -611 49 -1150 86 -969 65 -985 66 -1450 67 -499 2 -623 -6 -881 -53 -60
-11 -195 -36 -301 -55 -353 -64 -636 -133 -1263 -311 -558 -159 -721 -202
-805 -213 -44 -6 -116 -20 -161 -31 -118 -28 -348 -67 -514 -87 -116 -14 -222
-18 -525 -18 -333 0 -404 3 -575 23 -494 59 -862 141 -1547 346 -325 96 -350
109 -561 281 -68 55 -158 126 -200 158 -43 32 -255 236 -473 452 -343 340
-396 388 -387 357 18 -64 64 -145 130 -224 310 -375 584 -731 736 -956 96
-141 145 -192 222 -232 85 -43 132 -46 213 -16 78 30 130 32 240 11 43 -8 81
-15 84 -15 4 0 -19 -27 -50 -59 -71 -74 -76 -105 -19 -120 48 -14 80 -13 171
3 l74 13 43 -41 c71 -69 71 -116 -2 -193 -72 -76 -77 -111 -20 -148 30 -20 50
-12 108 41 56 52 89 62 133 41 46 -22 56 -57 37 -135 -14 -58 -14 -64 2 -80
16 -16 18 -16 46 0 29 16 30 16 55 -14 14 -17 33 -44 41 -62 9 -17 32 -47 51
-67 l35 -37 -28 -6 c-16 -3 -80 -13 -141 -22 l-113 -16 -85 53 c-48 30 -186
125 -308 213 -122 87 -265 188 -317 224 -84 58 -91 61 -60 27 54 -58 226 -212
331 -296 453 -363 987 -616 1585 -753 452 -104 929 -144 1554 -133 505 10 691
27 1410 128 1062 149 1567 199 2008 199 175 0 194 -2 693 -80 1467 -227 1838
-270 2224 -256 180 6 267 14 445 40 52 8 145 20 205 26 593 63 1232 269 1900
614 169 87 285 162 391 253 43 38 131 104 194 147 202 138 354 271 475 416
100 120 286 406 363 557 123 243 239 545 268 699 27 145 25 390 -4 546 -15 78
-22 156 -22 232 0 143 -10 192 -70 336 -27 63 -70 187 -96 275 -40 134 -60
183 -126 303 -43 78 -78 154 -78 168 0 39 -83 111 -206 179 -64 35 -130 80
-160 110 -47 47 -50 53 -46 92 5 50 -12 106 -44 149 -13 17 -69 64 -126 103
-57 40 -143 104 -193 142 -199 154 -583 397 -891 564 -246 133 -780 392 -790
383 -1 -2 105 -122 237 -268 133 -146 268 -295 301 -332 l60 -68 -39 16 c-302
126 -562 364 -703 643 -21 42 -58 90 -109 141 -78 77 -126 156 -167 275 -16
45 -62 105 -89 116 -13 5 -198 338 -219 394 -8 22 -38 121 -66 220 -132 464
-211 668 -338 877 -21 35 -59 106 -84 158 -26 55 -89 154 -147 234 -56 77
-117 171 -137 210 -19 39 -58 103 -87 143 -61 84 -255 301 -328 367 -61 55
-173 112 -237 122 -35 5 -58 16 -89 45 -30 28 -52 39 -73 39 -52 0 -97 26
-137 79 -21 28 -49 53 -63 57 -146 36 -267 97 -410 207 -159 123 -338 185
-702 242 -98 16 -182 31 -187 35 -6 3 -8 15 -5 27 8 29 75 43 209 43 174 0
287 -29 615 -160 186 -74 308 -116 316 -107 7 6 -278 154 -406 210 -362 158
-684 240 -1050 266 -153 11 -582 21 -620 15z m2104 -765 l51 -1 -44 -10 c-48
-11 -106 -4 -117 14 -5 8 3 9 26 5 18 -4 56 -7 84 -8z"/>
</g>
</svg>
