<?xml version="1.0" standalone="no"?>
<!DOCTYPE svg PUBLIC "-//W3C//DTD SVG 20010904//EN"
 "http://www.w3.org/TR/2001/REC-SVG-20010904/DTD/svg10.dtd">
<svg version="1.0" xmlns="http://www.w3.org/2000/svg"
 width="1536.000000pt" height="528.000000pt" viewBox="0 0 1536.000000 528.000000"
 preserveAspectRatio="xMidYMid meet">
<metadata>
Created by potrace 1.16, written by Peter Selinger 2001-2019
</metadata>
<g transform="translate(0.000000,528.000000) scale(0.100000,-0.100000)"
fill="#000000" stroke="none">
<path d="M9105 5190 c-242 -76 -465 -156 -1364 -489 l-164 -61 -221 -20 -221
-21 -525 76 -525 75 -740 22 c-784 22 -766 23 -1250 -17 -93 -8 -377 -31 -630
-50 -449 -36 -466 -38 -695 -86 -326 -70 -705 -146 -765 -154 -27 -4 -117 -18
-200 -31 -129 -22 -282 -49 -969 -176 -106 -19 -119 -24 -460 -195 -193 -96
-354 -180 -357 -185 -3 -5 -9 -98 -12 -207 l-6 -198 127 -296 127 -296 278
-292 279 -293 281 -169 c212 -127 329 -190 471 -253 l190 -85 250 7 251 6 170
-82 c482 -233 613 -287 1075 -442 l445 -149 501 -85 502 -84 393 -20 c217 -11
461 -23 542 -27 l149 -6 86 -108 87 -108 255 -170 255 -170 222 -21 222 -22
78 47 c150 91 154 96 262 319 95 196 98 204 121 336 13 74 26 139 30 143 11
12 267 55 394 66 61 6 120 13 131 16 15 5 64 -26 200 -126 99 -73 358 -255
575 -404 l395 -271 158 -43 159 -43 116 71 c107 64 134 86 307 261 171 172
213 208 420 360 222 163 238 176 453 398 122 127 222 232 222 235 0 2 -111 50
-247 106 l-248 102 -48 60 -49 61 20 46 c18 45 21 47 58 45 77 -3 576 -105
949 -194 l380 -91 297 -187 297 -186 512 -485 513 -485 357 -195 357 -196 173
-33 c96 -18 182 -33 192 -34 14 -2 30 26 72 121 l55 124 -119 381 c-160 511
-401 1298 -401 1307 0 4 75 56 167 116 128 83 213 129 359 195 189 85 195 88
321 195 70 60 131 112 134 117 3 5 22 80 42 168 l36 159 -120 167 c-67 93
-128 175 -137 184 -10 10 -106 42 -214 73 l-197 56 -603 0 c-365 0 -869 8
-1279 20 l-676 20 -284 50 c-1066 189 -1199 217 -1481 303 -148 45 -268 85
-268 88 0 4 41 37 91 75 80 60 102 84 174 189 l82 120 -14 130 -15 130 -96
175 c-145 265 -115 233 -313 335 -147 76 -603 277 -619 274 -3 -1 -131 -41
-285 -89z m-6653 -1260 c76 -24 550 -54 1128 -70 201 -6 466 -15 590 -21 124
-5 389 -12 590 -14 201 -3 469 -12 595 -20 127 -8 502 -20 835 -25 716 -12
1187 -30 1665 -66 338 -25 353 -27 435 -57 l85 -32 -45 -3 c-25 -2 -479 -1
-1010 3 -531 4 -1219 7 -1530 8 -335 2 -654 8 -785 16 -135 8 -467 14 -860 16
-593 2 -650 4 -775 23 -145 23 -364 44 -691 67 l-206 14 -88 43 -87 43 7 39
c3 22 8 43 11 48 9 14 70 9 136 -12z m371 -540 c565 -138 409 -125 1527 -125
531 0 1026 -4 1100 -8 74 -4 405 -21 735 -38 330 -16 720 -36 867 -44 196 -10
392 -13 735 -8 456 5 474 5 708 -21 132 -14 479 -44 770 -66 1004 -77 2211
-180 2511 -215 213 -25 345 -35 448 -35 80 0 146 -2 146 -5 0 -3 -15 -28 -32
-55 -22 -32 -40 -50 -53 -50 -12 0 -153 11 -315 25 -549 47 -1372 102 -1645
110 -198 6 -481 28 -1165 91 -382 35 -571 47 -830 54 -184 5 -393 14 -465 20
-150 12 -341 22 -980 51 -499 22 -537 22 -1692 -7 -491 -13 -657 -14 -845 -4
-128 6 -375 13 -548 16 -274 3 -625 22 -757 39 -35 5 -55 -1 -134 -40 l-92
-47 139 -139 139 -139 295 -80 295 -80 392 0 392 0 588 -75 588 -75 670 32
c626 30 722 32 1460 33 788 0 1158 -9 1580 -40 208 -16 1063 -64 1580 -90 348
-17 826 -63 1035 -100 200 -36 184 -27 155 -84 -24 -48 -25 -49 -104 -70 -125
-34 -194 -37 -274 -12 -124 38 -457 94 -922 155 -154 20 -267 27 -600 36 -390
10 -755 27 -1560 70 -198 11 -495 24 -660 31 -299 11 -301 11 -515 -15 -118
-15 -309 -47 -425 -71 -278 -58 -394 -65 -1061 -65 l-541 0 -279 41 -279 40
-475 4 c-354 3 -500 8 -575 19 -126 19 -372 43 -534 52 -118 6 -136 10 -311
69 -102 34 -239 73 -304 86 l-119 24 7 105 c3 58 9 171 12 252 l7 147 -144
151 c-79 83 -145 155 -147 159 -4 10 141 80 158 76 8 -3 163 -41 343 -85z
m6376 -1354 c-2 -2 -115 -47 -251 -100 l-247 -96 -103 0 c-57 0 -198 -5 -313
-10 -185 -9 -229 -15 -360 -46 -417 -98 -811 -163 -1307 -214 -216 -22 -429
-45 -473 -50 -98 -12 -283 -26 -515 -40 -164 -9 -193 -8 -460 19 -225 23 -329
39 -493 75 l-209 46 -99 72 -99 72 0 78 0 77 88 27 c48 15 103 28 122 28 19 0
167 -41 329 -92 161 -50 326 -98 365 -106 39 -8 240 -29 446 -46 206 -16 386
-33 400 -35 28 -6 79 -1 435 44 132 17 294 35 360 40 90 7 195 27 415 80 195
46 351 77 460 90 227 29 568 45 795 38 183 -6 378 8 605 42 63 10 115 13 109
7z"/>
</g>
</svg>
